G04*
G04 #@! TF.GenerationSoftware,Altium Limited,Altium Designer,24.9.1 (31)*
G04*
G04 Layer_Physical_Order=1*
G04 Layer_Color=255*
%FSLAX44Y44*%
%MOMM*%
G71*
G04*
G04 #@! TF.SameCoordinates,E522A728-1565-4151-A48C-DAC840DDD12B*
G04*
G04*
G04 #@! TF.FilePolarity,Positive*
G04*
G01*
G75*
%ADD30C,1.9800*%
G04:AMPARAMS|DCode=31|XSize=1.53mm|YSize=2.1mm|CornerRadius=0mm|HoleSize=0mm|Usage=FLASHONLY|Rotation=135.000|XOffset=0mm|YOffset=0mm|HoleType=Round|Shape=Round|*
%AMOVALD31*
21,1,0.5700,1.5300,0.0000,0.0000,225.0*
1,1,1.5300,0.2015,0.2015*
1,1,1.5300,-0.2015,-0.2015*
%
%ADD31OVALD31*%

%ADD32O,2.1000X1.5240*%
%ADD33O,1.5240X2.1000*%
%ADD34C,2.5000*%
%ADD35R,2.1000X1.3700*%
%ADD36O,2.1000X1.3700*%
%ADD37R,1.3700X1.9000*%
%ADD38O,1.3700X1.9000*%
%ADD39R,2.1000X1.6050*%
%ADD40O,2.1000X1.6050*%
%ADD41O,1.5300X2.1000*%
%ADD42O,1.6050X2.1000*%
%ADD43R,1.6050X2.1000*%
%ADD44O,1.3700X2.1000*%
%ADD45R,1.3700X2.1000*%
G04:AMPARAMS|DCode=46|XSize=1.53mm|YSize=2.1mm|CornerRadius=0mm|HoleSize=0mm|Usage=FLASHONLY|Rotation=225.000|XOffset=0mm|YOffset=0mm|HoleType=Round|Shape=Round|*
%AMOVALD46*
21,1,0.5700,1.5300,0.0000,0.0000,315.0*
1,1,1.5300,-0.2015,0.2015*
1,1,1.5300,0.2015,-0.2015*
%
%ADD46OVALD46*%

D30*
X1637030Y9081770D02*
D03*
X1662430D02*
D03*
X1687830D02*
D03*
X1713230D02*
D03*
X1738630D02*
D03*
X1764030D02*
D03*
X1789430D02*
D03*
X1814830D02*
D03*
Y8929370D02*
D03*
X1789430D02*
D03*
X1764030D02*
D03*
X1738630D02*
D03*
X1713230D02*
D03*
X1687830D02*
D03*
X1662430D02*
D03*
X1637030D02*
D03*
D31*
X2058941Y9038319D02*
D03*
X2005059Y9092201D02*
D03*
X2023020Y9074240D02*
D03*
X2040980Y9056279D02*
D03*
D32*
X1725168Y8265160D02*
D03*
Y8214360D02*
D03*
Y8239760D02*
D03*
Y8290560D02*
D03*
Y8188960D02*
D03*
Y8163560D02*
D03*
Y8138160D02*
D03*
Y8112760D02*
D03*
X1980438Y8290560D02*
D03*
Y8265160D02*
D03*
Y8239760D02*
D03*
Y8214360D02*
D03*
Y8188960D02*
D03*
Y8163560D02*
D03*
Y8138160D02*
D03*
Y8112760D02*
D03*
D33*
X1812798Y8073390D02*
D03*
X1914398D02*
D03*
X1787398D02*
D03*
X1838198D02*
D03*
X1863598D02*
D03*
X1888998D02*
D03*
X1761998D02*
D03*
X1939798D02*
D03*
X1664208Y8329930D02*
D03*
X1638808D02*
D03*
X1689608D02*
D03*
X1613408D02*
D03*
X1939798D02*
D03*
X1838198D02*
D03*
X1863598D02*
D03*
X1761998D02*
D03*
X1914398D02*
D03*
X1888998D02*
D03*
X1812798D02*
D03*
X1787398D02*
D03*
D34*
X1980946Y8547862D02*
D03*
X1979930Y8729218D02*
D03*
X1483868Y8547608D02*
D03*
Y8728710D02*
D03*
D35*
X1919986Y8891524D02*
D03*
X1519936Y8861298D02*
D03*
X1941830Y9005062D02*
D03*
D36*
X1919986Y8916924D02*
D03*
X1519936Y8886698D02*
D03*
X1941830Y8979662D02*
D03*
D37*
X1694942Y9286494D02*
D03*
X1877568Y9172448D02*
D03*
X1690370Y8395970D02*
D03*
D38*
X1669542Y9286494D02*
D03*
X1852168Y9172448D02*
D03*
X1664970Y8395970D02*
D03*
D39*
X2244090Y8148320D02*
D03*
X1564640Y8936990D02*
D03*
X1874520Y8933180D02*
D03*
X1293876Y8145272D02*
D03*
D40*
X2244090Y8173720D02*
D03*
Y8199120D02*
D03*
Y8224520D02*
D03*
X1564640Y9063990D02*
D03*
Y9038590D02*
D03*
Y9013190D02*
D03*
Y8987790D02*
D03*
Y8962390D02*
D03*
X1874520Y8958580D02*
D03*
Y8983980D02*
D03*
Y9009380D02*
D03*
Y9034780D02*
D03*
Y9060180D02*
D03*
X1293876Y8170672D02*
D03*
Y8196072D02*
D03*
Y8221472D02*
D03*
D41*
X1751330Y9345930D02*
D03*
X1725930D02*
D03*
X1700530D02*
D03*
X1776730D02*
D03*
D42*
X1750822Y8497316D02*
D03*
X1725422D02*
D03*
X1700022D02*
D03*
D43*
X1674622D02*
D03*
D44*
X1657350Y9194800D02*
D03*
X1682750D02*
D03*
X1708150D02*
D03*
X1733550D02*
D03*
X1758950D02*
D03*
D45*
X1784350D02*
D03*
D46*
X1454150Y9091930D02*
D03*
X1400269Y9038049D02*
D03*
X1418229Y9056009D02*
D03*
X1436190Y9073970D02*
D03*
M02*
