M48
;Layer_Color=9474304
;FILE_FORMAT=4:4
METRIC,LZ
;TYPE=PLATED
T01F00S00C0.7620
T02F00S00C1.0200
T03F00S00C1.0700
T04F00S00C1.3200
T05F00S00C2.5000
%
T01
X01613408Y0832993
X01638808
X01664208
X01689608
X01761998
X01787398
X01812798
X01838198
X01863598
X01888998
X01914398
X01939798
X01980438Y0829056
Y0826516
Y0823976
Y0821436
Y0818896
Y0816356
Y0813816
Y0811276
X01939798Y0807339
X01914398
X01888998
X01863598
X01838198
X01812798
X01787398
X01761998
X01725168Y0811276
Y0813816
Y0816356
Y0818896
Y0821436
Y0823976
Y0826516
Y0829056
T02
X0166497Y0839597
X0169037
X01519936Y08861298
Y08886698
X0145415Y0909193
X0143619Y0907397
X01418229Y09056009
X01400269Y09038049
X0194183Y09005062
Y08979662
X01919986Y08916924
Y08891524
X02058941Y09038319
X0204098Y09056279
X0202302Y0907424
X02005059Y09092201
X01877568Y09172448
X01852168
X0177673Y0934593
X0175133
X0172593
X0170053
X01694942Y09286494
X01669542
T03
X01293876Y08221472
Y08196072
Y08170672
Y08145272
X0224409Y0814832
Y0817372
Y0819912
Y0822452
X01750822Y08497316
X01725422
X01700022
X01674622
X0156464Y0893699
Y0896239
Y0898779
Y0901319
Y0903859
Y0906399
X0187452Y0906018
Y0903478
Y0900938
Y0898398
Y0895858
Y0893318
X0178435Y091948
X0175895
X0173355
X0170815
X0168275
X0165735
T04
X0163703Y0908177
X0166243
X0168783
X0171323
X0173863
X0176403
X0178943
X0181483
Y0892937
X0178943
X0176403
X0173863
X0171323
X0168783
X0166243
X0163703
T05
X0197993Y08729218
X01980946Y08547862
X01483868Y08547608
Y0872871
M30
