G04*
G04 #@! TF.GenerationSoftware,Altium Limited,Altium Designer,24.9.1 (31)*
G04*
G04 Layer_Physical_Order=2*
G04 Layer_Color=16711680*
%FSLAX44Y44*%
%MOMM*%
G71*
G04*
G04 #@! TF.SameCoordinates,E522A728-1565-4151-A48C-DAC840DDD12B*
G04*
G04*
G04 #@! TF.FilePolarity,Positive*
G04*
G01*
G75*
%ADD30C,1.9800*%
G04:AMPARAMS|DCode=31|XSize=1.53mm|YSize=2.1mm|CornerRadius=0mm|HoleSize=0mm|Usage=FLASHONLY|Rotation=135.000|XOffset=0mm|YOffset=0mm|HoleType=Round|Shape=Round|*
%AMOVALD31*
21,1,0.5700,1.5300,0.0000,0.0000,225.0*
1,1,1.5300,0.2015,0.2015*
1,1,1.5300,-0.2015,-0.2015*
%
%ADD31OVALD31*%

%ADD32O,2.1000X1.5240*%
%ADD33O,1.5240X2.1000*%
%ADD34C,2.5000*%
%ADD35R,2.1000X1.3700*%
%ADD36O,2.1000X1.3700*%
%ADD37R,1.3700X1.9000*%
%ADD38O,1.3700X1.9000*%
%ADD39R,2.1000X1.6050*%
%ADD40O,2.1000X1.6050*%
%ADD41O,1.5300X2.1000*%
%ADD42O,1.6050X2.1000*%
%ADD43R,1.6050X2.1000*%
%ADD44O,1.3700X2.1000*%
%ADD45R,1.3700X2.1000*%
G04:AMPARAMS|DCode=46|XSize=1.53mm|YSize=2.1mm|CornerRadius=0mm|HoleSize=0mm|Usage=FLASHONLY|Rotation=225.000|XOffset=0mm|YOffset=0mm|HoleType=Round|Shape=Round|*
%AMOVALD46*
21,1,0.5700,1.5300,0.0000,0.0000,315.0*
1,1,1.5300,-0.2015,0.2015*
1,1,1.5300,0.2015,-0.2015*
%
%ADD46OVALD46*%

%ADD47C,0.3000*%
%ADD48C,0.5000*%
G36*
X1812121Y9587787D02*
X1843550Y9581827D01*
X1948180Y9549130D01*
X1977390Y9537700D01*
X2012950Y9522460D01*
X2110105Y9457055D01*
X2176780Y9390380D01*
X2204085Y9363075D01*
X2241550Y9314180D01*
X2265680Y9264650D01*
X2273300Y9246870D01*
X2276762Y9239088D01*
X2279650Y9232900D01*
X2297430Y9194800D01*
X2310348Y9163050D01*
X2326640Y9111208D01*
X2336800Y9048750D01*
X2339340Y8999220D01*
Y8901025D01*
X2337205Y8898917D01*
X2137814Y8901470D01*
X2139547Y8369300D01*
X2336800D01*
Y7978140D01*
X1123950D01*
X1122680Y7979410D01*
Y8371840D01*
X1324610D01*
Y8901430D01*
X1122680D01*
Y9029700D01*
X1126142Y9058986D01*
X1129030Y9076690D01*
X1133475Y9092565D01*
X1145540Y9147810D01*
X1150616Y9163050D01*
X1158240Y9190990D01*
X1180011Y9236710D01*
X1203960Y9282430D01*
X1224915Y9322435D01*
X1254760Y9359900D01*
X1261110Y9366250D01*
Y9370060D01*
X1330960Y9439910D01*
X1414780Y9505950D01*
X1457960Y9527540D01*
X1493520Y9544050D01*
X1555750Y9564370D01*
X1587500Y9573260D01*
X1653328Y9586172D01*
X1725930Y9591040D01*
X1812121Y9587787D01*
D02*
G37*
%LPC*%
G36*
X1389023Y9047172D02*
X1388077Y9045939D01*
X1386903Y9043105D01*
X1386503Y9040063D01*
X1386903Y9037023D01*
X1388077Y9034188D01*
X1389944Y9031755D01*
X1390899Y9030800D01*
X1398147Y9038048D01*
X1389023Y9047172D01*
D02*
G37*
G36*
X1400269Y9035927D02*
X1393020Y9028679D01*
X1393975Y9027724D01*
X1396409Y9025857D01*
X1399243Y9024683D01*
X1402284Y9024283D01*
X1405325Y9024683D01*
X1408159Y9025857D01*
X1409392Y9026803D01*
X1400269Y9035927D01*
D02*
G37*
G36*
X2246565Y8236649D02*
X2245590D01*
Y8226020D01*
X2258496D01*
X2258280Y8227659D01*
X2257069Y8230584D01*
X2255141Y8233096D01*
X2252629Y8235024D01*
X2249704Y8236235D01*
X2246565Y8236649D01*
D02*
G37*
G36*
X2242590D02*
X2241615D01*
X2238476Y8236235D01*
X2235551Y8235024D01*
X2233039Y8233096D01*
X2231111Y8230584D01*
X2229899Y8227659D01*
X2229684Y8226020D01*
X2242590D01*
Y8236649D01*
D02*
G37*
G36*
X2258496Y8223020D02*
X2244090D01*
X2229684D01*
X2229899Y8221381D01*
X2231111Y8218456D01*
X2233039Y8215944D01*
X2235551Y8214016D01*
X2236933Y8213444D01*
Y8210197D01*
X2235551Y8209624D01*
X2233039Y8207697D01*
X2231111Y8205184D01*
X2229899Y8202259D01*
X2229684Y8200620D01*
X2244090D01*
X2258496D01*
X2258280Y8202259D01*
X2257069Y8205184D01*
X2255141Y8207697D01*
X2252629Y8209624D01*
X2251247Y8210197D01*
Y8213444D01*
X2252629Y8214016D01*
X2255141Y8215944D01*
X2257069Y8218456D01*
X2258280Y8221381D01*
X2258496Y8223020D01*
D02*
G37*
G36*
X1875960Y9415478D02*
X1708912D01*
X1707215Y9415255D01*
X1705634Y9414600D01*
X1704276Y9413558D01*
X1410144Y9119426D01*
X1409102Y9118068D01*
X1408447Y9116487D01*
X1408224Y9114790D01*
Y9067838D01*
X1407191Y9067046D01*
X1405164Y9064404D01*
X1403889Y9061326D01*
X1403454Y9058024D01*
X1403889Y9054722D01*
X1404457Y9053351D01*
X1402161Y9051055D01*
X1401295Y9051414D01*
X1398253Y9051815D01*
X1395212Y9051414D01*
X1392378Y9050240D01*
X1391145Y9049293D01*
X1401329Y9039109D01*
X1411514Y9028925D01*
X1412460Y9030158D01*
X1413634Y9032992D01*
X1414034Y9036033D01*
X1413634Y9039075D01*
X1413275Y9039941D01*
X1415571Y9042237D01*
X1416942Y9041669D01*
X1420244Y9041234D01*
X1423546Y9041669D01*
X1426624Y9042944D01*
X1429266Y9044971D01*
X1431294Y9047614D01*
X1432569Y9050691D01*
X1433003Y9053994D01*
X1432569Y9057296D01*
X1432542Y9057361D01*
X1434838Y9059657D01*
X1434903Y9059630D01*
X1438205Y9059195D01*
X1441507Y9059630D01*
X1443585Y9060491D01*
X1446585Y9058986D01*
Y8287527D01*
X1359138Y8200081D01*
X1308789D01*
X1307728Y8202641D01*
X1305641Y8205361D01*
X1303429Y8207059D01*
X1303142Y8208772D01*
X1303429Y8210485D01*
X1305641Y8212183D01*
X1307728Y8214904D01*
X1309041Y8218072D01*
X1309488Y8221472D01*
X1309041Y8224872D01*
X1307728Y8228041D01*
X1305641Y8230762D01*
X1302920Y8232849D01*
X1299751Y8234162D01*
X1296351Y8234609D01*
X1291401D01*
X1288001Y8234162D01*
X1284832Y8232849D01*
X1282112Y8230762D01*
X1280024Y8228041D01*
X1278711Y8224872D01*
X1278264Y8221472D01*
X1278711Y8218072D01*
X1280024Y8214904D01*
X1282112Y8212183D01*
X1284323Y8210485D01*
X1284610Y8208772D01*
X1284323Y8207059D01*
X1282112Y8205361D01*
X1280024Y8202641D01*
X1278711Y8199472D01*
X1278264Y8196072D01*
X1278711Y8192672D01*
X1280024Y8189503D01*
X1282112Y8186782D01*
X1284832Y8184695D01*
X1285412Y8184454D01*
Y8181207D01*
X1285337Y8181176D01*
X1282825Y8179248D01*
X1280897Y8176736D01*
X1279686Y8173811D01*
X1279470Y8172172D01*
X1293876D01*
X1308282D01*
X1308067Y8173811D01*
X1306855Y8176736D01*
X1304927Y8179248D01*
X1302415Y8181176D01*
X1302340Y8181207D01*
Y8184454D01*
X1302920Y8184695D01*
X1303254Y8184951D01*
X1359138D01*
X1490279Y8053811D01*
X1490279Y8053811D01*
X1491845Y8052609D01*
X1493670Y8051853D01*
X1495628Y8051595D01*
X1495628Y8051595D01*
X1718558D01*
X1720516Y8051853D01*
X1722340Y8052609D01*
X1723907Y8053811D01*
X1746269Y8076173D01*
X1749269Y8074930D01*
Y8070510D01*
X1749703Y8067216D01*
X1750974Y8064146D01*
X1752997Y8061509D01*
X1755634Y8059487D01*
X1758703Y8058215D01*
X1761998Y8057781D01*
X1765293Y8058215D01*
X1768362Y8059487D01*
X1770999Y8061509D01*
X1773022Y8064146D01*
X1773074Y8064273D01*
X1776322D01*
X1776375Y8064146D01*
X1778397Y8061509D01*
X1781034Y8059487D01*
X1784104Y8058215D01*
X1787398Y8057781D01*
X1790692Y8058215D01*
X1793762Y8059487D01*
X1796399Y8061509D01*
X1798421Y8064146D01*
X1798474Y8064273D01*
X1801722D01*
X1801774Y8064146D01*
X1803562Y8061816D01*
X1803417Y8061467D01*
X1803194Y8059770D01*
Y8017510D01*
X1803417Y8015813D01*
X1804072Y8014232D01*
X1805114Y8012874D01*
X1817432Y8000556D01*
X1817641Y8000396D01*
X1816622Y7997396D01*
X1411146D01*
X1298146Y8110396D01*
Y8132247D01*
X1309376D01*
Y8158297D01*
X1304905D01*
X1303887Y8161297D01*
X1304927Y8162096D01*
X1306855Y8164608D01*
X1308067Y8167533D01*
X1308282Y8169172D01*
X1293876D01*
X1279470D01*
X1279686Y8167533D01*
X1280897Y8164608D01*
X1282825Y8162096D01*
X1283866Y8161297D01*
X1282847Y8158297D01*
X1278376D01*
Y8132247D01*
X1285034D01*
Y8107680D01*
X1285257Y8105983D01*
X1285912Y8104402D01*
X1286954Y8103044D01*
X1403794Y7986204D01*
X1405152Y7985162D01*
X1406733Y7984507D01*
X1408430Y7984284D01*
X2211070D01*
X2212767Y7984507D01*
X2214348Y7985162D01*
X2215706Y7986204D01*
X2247456Y8017954D01*
X2248498Y8019312D01*
X2249153Y8020893D01*
X2249376Y8022590D01*
Y8135295D01*
X2259590D01*
Y8161345D01*
X2255119D01*
X2254100Y8164345D01*
X2255141Y8165143D01*
X2257069Y8167656D01*
X2258280Y8170581D01*
X2258496Y8172220D01*
X2244090D01*
X2229684D01*
X2229899Y8170581D01*
X2231111Y8167656D01*
X2233039Y8165143D01*
X2234079Y8164345D01*
X2233061Y8161345D01*
X2228590D01*
Y8135295D01*
X2236264D01*
Y8025306D01*
X2208354Y7997396D01*
X2061450D01*
X2060431Y8000396D01*
X2060640Y8000556D01*
X2128838Y8068754D01*
X2129880Y8070112D01*
X2130535Y8071693D01*
X2130758Y8073390D01*
Y9160680D01*
X2130535Y9162377D01*
X2129880Y9163958D01*
X2128838Y9165316D01*
X1880596Y9413558D01*
X1879238Y9414600D01*
X1877657Y9415255D01*
X1875960Y9415478D01*
D02*
G37*
G36*
X2258496Y8197620D02*
X2244090D01*
X2229684D01*
X2229899Y8195981D01*
X2231111Y8193055D01*
X2233039Y8190544D01*
X2235551Y8188616D01*
X2236933Y8188044D01*
Y8184796D01*
X2235551Y8184224D01*
X2233039Y8182296D01*
X2231111Y8179785D01*
X2229899Y8176859D01*
X2229684Y8175220D01*
X2244090D01*
X2258496D01*
X2258280Y8176859D01*
X2257069Y8179785D01*
X2255141Y8182296D01*
X2252629Y8184224D01*
X2251247Y8184796D01*
Y8188044D01*
X2252629Y8188616D01*
X2255141Y8190544D01*
X2257069Y8193055D01*
X2258280Y8195981D01*
X2258496Y8197620D01*
D02*
G37*
%LPD*%
G36*
X1781865Y9102767D02*
Y9094636D01*
X1779932Y9093344D01*
X1777986Y9091398D01*
X1777742Y9091227D01*
X1777599Y9091177D01*
X1774225Y9091233D01*
X1772565Y9092893D01*
X1769395Y9094723D01*
X1765860Y9095670D01*
X1765530D01*
Y9081770D01*
Y9067870D01*
X1765860D01*
X1769395Y9068817D01*
X1772565Y9070647D01*
X1774225Y9072307D01*
X1777599Y9072363D01*
X1777742Y9072313D01*
X1777986Y9072142D01*
X1779932Y9070197D01*
X1782372Y9068566D01*
X1785084Y9067443D01*
X1787962Y9066870D01*
X1790898D01*
X1793776Y9067443D01*
X1793830Y9067465D01*
X1802274Y9059021D01*
X1802274Y9059021D01*
X1803840Y9057819D01*
X1805665Y9057063D01*
X1805870Y9057036D01*
X1805673Y9054036D01*
X1702992D01*
X1694386Y9062642D01*
Y9068358D01*
X1694888Y9068566D01*
X1697328Y9070197D01*
X1698591Y9071459D01*
X1700530Y9071973D01*
X1702469Y9071459D01*
X1703732Y9070197D01*
X1706172Y9068566D01*
X1708884Y9067443D01*
X1711763Y9066870D01*
X1714698D01*
X1717576Y9067443D01*
X1720288Y9068566D01*
X1722728Y9070197D01*
X1723991Y9071459D01*
X1725930Y9071973D01*
X1727869Y9071459D01*
X1729132Y9070197D01*
X1731572Y9068566D01*
X1734284Y9067443D01*
X1737162Y9066870D01*
X1740098D01*
X1742976Y9067443D01*
X1745688Y9068566D01*
X1748128Y9070197D01*
X1750074Y9072142D01*
X1750318Y9072313D01*
X1750461Y9072363D01*
X1753835Y9072307D01*
X1755495Y9070647D01*
X1758665Y9068817D01*
X1762200Y9067870D01*
X1762530D01*
Y9081770D01*
Y9095670D01*
X1762200D01*
X1758665Y9094723D01*
X1755495Y9092893D01*
X1753835Y9091233D01*
X1750461Y9091177D01*
X1750318Y9091227D01*
X1750074Y9091398D01*
X1748128Y9093344D01*
X1745688Y9094974D01*
X1742976Y9096097D01*
X1740098Y9096670D01*
X1737162D01*
X1734284Y9096097D01*
X1733782Y9095890D01*
X1718866Y9110806D01*
X1717508Y9111848D01*
X1715927Y9112502D01*
X1714230Y9112726D01*
X1549924D01*
X1548227Y9112502D01*
X1546646Y9111848D01*
X1545288Y9110806D01*
X1530794Y9096312D01*
X1529752Y9094954D01*
X1529097Y9093373D01*
X1528874Y9091676D01*
Y8948674D01*
X1529097Y8946977D01*
X1529752Y8945396D01*
X1530794Y8944038D01*
X1542478Y8932354D01*
X1543836Y8931312D01*
X1545417Y8930657D01*
X1547114Y8930434D01*
X1549140D01*
Y8923965D01*
X1580140D01*
Y8950015D01*
X1575669D01*
X1574651Y8953015D01*
X1575691Y8953813D01*
X1577619Y8956326D01*
X1578831Y8959251D01*
X1579046Y8960890D01*
X1564640D01*
X1550234D01*
X1550450Y8959251D01*
X1551661Y8956326D01*
X1553589Y8953813D01*
X1554630Y8953015D01*
X1553611Y8950015D01*
X1549140D01*
Y8948156D01*
X1546368Y8947007D01*
X1541986Y8951390D01*
Y9088961D01*
X1552640Y9099614D01*
X1608663D01*
X1609811Y9096842D01*
X1583514Y9070546D01*
X1578498D01*
X1578492Y9070558D01*
X1576405Y9073279D01*
X1573684Y9075367D01*
X1570515Y9076680D01*
X1567115Y9077128D01*
X1562165D01*
X1558765Y9076680D01*
X1555596Y9075367D01*
X1552876Y9073279D01*
X1550788Y9070558D01*
X1549475Y9067390D01*
X1549028Y9063990D01*
X1549475Y9060590D01*
X1550788Y9057421D01*
X1552876Y9054700D01*
X1555087Y9053004D01*
X1555374Y9051290D01*
X1555087Y9049576D01*
X1552876Y9047880D01*
X1550788Y9045159D01*
X1549475Y9041990D01*
X1549028Y9038590D01*
X1549475Y9035190D01*
X1550788Y9032021D01*
X1552876Y9029301D01*
X1555087Y9027604D01*
X1555374Y9025890D01*
X1555087Y9024177D01*
X1552876Y9022479D01*
X1550788Y9019759D01*
X1549475Y9016590D01*
X1549028Y9013190D01*
X1549475Y9009790D01*
X1550788Y9006621D01*
X1552876Y9003901D01*
X1555087Y9002203D01*
X1555374Y9000490D01*
X1555087Y8998776D01*
X1552876Y8997079D01*
X1550788Y8994359D01*
X1549475Y8991190D01*
X1549028Y8987790D01*
X1549475Y8984390D01*
X1550788Y8981221D01*
X1552876Y8978500D01*
X1555596Y8976413D01*
X1556176Y8976172D01*
Y8972925D01*
X1556101Y8972894D01*
X1553589Y8970966D01*
X1551661Y8968455D01*
X1550450Y8965529D01*
X1550234Y8963890D01*
X1564640D01*
X1579046D01*
X1578831Y8965529D01*
X1577619Y8968455D01*
X1575691Y8970966D01*
X1573179Y8972894D01*
X1573104Y8972925D01*
Y8976172D01*
X1573684Y8976413D01*
X1576405Y8978500D01*
X1576741Y8978939D01*
X1580723Y8979200D01*
X1586532Y8973391D01*
Y8906949D01*
X1575244Y8895662D01*
X1574202Y8894304D01*
X1573547Y8892723D01*
X1573324Y8891026D01*
Y8276707D01*
X1573547Y8275010D01*
X1574202Y8273428D01*
X1575244Y8272070D01*
X1661974Y8185340D01*
X1663332Y8184298D01*
X1664913Y8183643D01*
X1666610Y8183420D01*
X1710923D01*
X1711264Y8182596D01*
X1713287Y8179959D01*
X1715924Y8177936D01*
X1716051Y8177883D01*
Y8174636D01*
X1715924Y8174584D01*
X1713287Y8172560D01*
X1711264Y8169924D01*
X1709993Y8166854D01*
X1709559Y8163560D01*
X1709993Y8160266D01*
X1711264Y8157195D01*
X1713287Y8154559D01*
X1715924Y8152537D01*
X1716051Y8152484D01*
Y8149236D01*
X1715924Y8149183D01*
X1713287Y8147161D01*
X1711264Y8144525D01*
X1709993Y8141454D01*
X1709559Y8138160D01*
X1709993Y8134866D01*
X1711264Y8131796D01*
X1713287Y8129160D01*
X1715924Y8127136D01*
X1716051Y8127084D01*
Y8123837D01*
X1715924Y8123784D01*
X1713287Y8121761D01*
X1711264Y8119124D01*
X1709993Y8116055D01*
X1709559Y8112760D01*
X1709993Y8109465D01*
X1711264Y8106396D01*
X1713287Y8103759D01*
X1715924Y8101736D01*
X1718994Y8100465D01*
X1722288Y8100031D01*
X1728048D01*
X1731342Y8100465D01*
X1734412Y8101736D01*
X1737049Y8103759D01*
X1739072Y8106396D01*
X1740343Y8109465D01*
X1740777Y8112760D01*
X1740343Y8116055D01*
X1739072Y8119124D01*
X1737049Y8121761D01*
X1734412Y8123784D01*
X1734285Y8123837D01*
Y8127084D01*
X1734412Y8127136D01*
X1737049Y8129160D01*
X1739072Y8131796D01*
X1740343Y8134866D01*
X1740777Y8138160D01*
X1740343Y8141454D01*
X1739072Y8144525D01*
X1737049Y8147161D01*
X1734412Y8149183D01*
X1734285Y8149236D01*
Y8152484D01*
X1734412Y8152537D01*
X1737049Y8154559D01*
X1739072Y8157195D01*
X1740343Y8160266D01*
X1740777Y8163560D01*
X1740343Y8166854D01*
X1739072Y8169924D01*
X1737049Y8172560D01*
X1734412Y8174584D01*
X1734285Y8174636D01*
Y8177883D01*
X1734412Y8177936D01*
X1737049Y8179959D01*
X1739072Y8182596D01*
X1740343Y8185665D01*
X1740777Y8188960D01*
X1740343Y8192255D01*
X1739072Y8195324D01*
X1737049Y8197961D01*
X1734412Y8199984D01*
X1734285Y8200037D01*
Y8203284D01*
X1734412Y8203337D01*
X1737049Y8205359D01*
X1739072Y8207996D01*
X1740343Y8211066D01*
X1740777Y8214360D01*
X1740343Y8217654D01*
X1739072Y8220724D01*
X1737049Y8223361D01*
X1734412Y8225383D01*
X1732978Y8225978D01*
X1732978Y8229225D01*
X1733908Y8229610D01*
X1736335Y8231473D01*
X1738198Y8233900D01*
X1739369Y8236727D01*
X1739571Y8238260D01*
X1725168D01*
X1710765D01*
X1710967Y8236727D01*
X1712138Y8233900D01*
X1714001Y8231473D01*
X1716428Y8229610D01*
X1717358Y8229225D01*
X1717358Y8225978D01*
X1715924Y8225383D01*
X1713287Y8223361D01*
X1712191Y8221932D01*
X1655240D01*
X1594436Y8282736D01*
Y8884997D01*
X1605724Y8896285D01*
X1606766Y8897642D01*
X1607421Y8899224D01*
X1607644Y8900920D01*
Y8989442D01*
X1607421Y8991139D01*
X1606766Y8992720D01*
X1605724Y8994078D01*
X1581976Y9017826D01*
X1580618Y9018868D01*
X1579037Y9019523D01*
X1578564Y9019585D01*
X1578492Y9019759D01*
X1576405Y9022479D01*
X1574193Y9024177D01*
X1573906Y9025890D01*
X1574193Y9027604D01*
X1576405Y9029301D01*
X1577728Y9031025D01*
X1586145D01*
X1610669Y9006501D01*
Y8566658D01*
X1610927Y8564700D01*
X1611683Y8562876D01*
X1612885Y8561309D01*
X1661597Y8512597D01*
Y8481816D01*
X1661597D01*
X1662426Y8479816D01*
X1605011Y8422401D01*
X1603809Y8420834D01*
X1603053Y8419010D01*
X1602795Y8417052D01*
Y8347550D01*
X1603053Y8345592D01*
X1603809Y8343768D01*
X1604976Y8342247D01*
X1604407Y8341811D01*
X1602384Y8339174D01*
X1601113Y8336105D01*
X1600679Y8332810D01*
Y8327050D01*
X1601113Y8323755D01*
X1602384Y8320685D01*
X1604407Y8318049D01*
X1607044Y8316027D01*
X1610114Y8314755D01*
X1613408Y8314321D01*
X1616703Y8314755D01*
X1619772Y8316027D01*
X1622409Y8318049D01*
X1624431Y8320685D01*
X1624484Y8320813D01*
X1627732D01*
X1627784Y8320685D01*
X1629807Y8318049D01*
X1632444Y8316027D01*
X1635513Y8314755D01*
X1638808Y8314321D01*
X1642103Y8314755D01*
X1645172Y8316027D01*
X1647809Y8318049D01*
X1649832Y8320685D01*
X1650426Y8322120D01*
X1653673Y8322120D01*
X1654058Y8321190D01*
X1655921Y8318762D01*
X1658348Y8316900D01*
X1661175Y8315729D01*
X1662708Y8315527D01*
Y8329931D01*
Y8344333D01*
X1661175Y8344131D01*
X1658348Y8342960D01*
X1655921Y8341097D01*
X1654058Y8338670D01*
X1653673Y8337740D01*
X1650426Y8337740D01*
X1649832Y8339174D01*
X1647809Y8341811D01*
X1645172Y8343834D01*
X1642103Y8345105D01*
X1638808Y8345539D01*
X1635513Y8345105D01*
X1632444Y8343834D01*
X1629807Y8341811D01*
X1627784Y8339174D01*
X1627732Y8339047D01*
X1624484D01*
X1624431Y8339174D01*
X1622409Y8341811D01*
X1620425Y8343333D01*
Y8345050D01*
X1620425Y8345050D01*
X1620167Y8347008D01*
X1619411Y8348832D01*
X1618209Y8350399D01*
X1617925Y8350684D01*
Y8413918D01*
X1679463Y8475457D01*
X1680665Y8477023D01*
X1681421Y8478848D01*
X1681679Y8480806D01*
Y8481816D01*
X1687647D01*
Y8486287D01*
X1690647Y8487305D01*
X1691446Y8486265D01*
X1693958Y8484337D01*
X1696883Y8483126D01*
X1698522Y8482910D01*
Y8497316D01*
Y8511722D01*
X1696883Y8511506D01*
X1693958Y8510295D01*
X1691446Y8508367D01*
X1690647Y8507327D01*
X1687647Y8508345D01*
Y8512816D01*
X1681685D01*
X1681173Y8514052D01*
X1679971Y8515619D01*
X1625799Y8569791D01*
Y8916701D01*
X1627576Y8917720D01*
X1628799Y8918072D01*
X1631665Y8916417D01*
X1635200Y8915470D01*
X1635530D01*
Y8929371D01*
Y8943270D01*
X1635200D01*
X1631665Y8942323D01*
X1628799Y8940668D01*
X1627576Y8941020D01*
X1625799Y8942039D01*
Y9009634D01*
X1625541Y9011592D01*
X1624785Y9013416D01*
X1623583Y9014983D01*
X1610312Y9028254D01*
X1611461Y9031025D01*
X1623737D01*
X1692641Y8962121D01*
X1694208Y8960919D01*
X1696032Y8960163D01*
X1697990Y8959905D01*
X1802299D01*
X1814934Y8947270D01*
X1813691Y8944270D01*
X1813362D01*
X1810484Y8943698D01*
X1807772Y8942574D01*
X1805332Y8940944D01*
X1804069Y8939681D01*
X1802130Y8939167D01*
X1800191Y8939681D01*
X1798928Y8940944D01*
X1796488Y8942574D01*
X1793776Y8943698D01*
X1790898Y8944270D01*
X1787962D01*
X1785084Y8943698D01*
X1782372Y8942574D01*
X1779932Y8940944D01*
X1778669Y8939681D01*
X1776730Y8939167D01*
X1774791Y8939681D01*
X1773528Y8940944D01*
X1771088Y8942574D01*
X1768376Y8943698D01*
X1765497Y8944270D01*
X1762563D01*
X1759684Y8943698D01*
X1756972Y8942574D01*
X1754532Y8940944D01*
X1753269Y8939681D01*
X1751330Y8939167D01*
X1749391Y8939681D01*
X1748128Y8940944D01*
X1745688Y8942574D01*
X1742976Y8943698D01*
X1740098Y8944270D01*
X1737162D01*
X1734284Y8943698D01*
X1731572Y8942574D01*
X1729132Y8940944D01*
X1727869Y8939681D01*
X1725930Y8939167D01*
X1723991Y8939681D01*
X1722728Y8940944D01*
X1720288Y8942574D01*
X1717576Y8943698D01*
X1714698Y8944270D01*
X1711763D01*
X1708884Y8943698D01*
X1706172Y8942574D01*
X1703732Y8940944D01*
X1702469Y8939681D01*
X1700530Y8939167D01*
X1698591Y8939681D01*
X1697328Y8940944D01*
X1694888Y8942574D01*
X1692176Y8943698D01*
X1689297Y8944270D01*
X1686362D01*
X1683484Y8943698D01*
X1680772Y8942574D01*
X1678332Y8940944D01*
X1677069Y8939681D01*
X1675130Y8939167D01*
X1673191Y8939681D01*
X1671928Y8940944D01*
X1669488Y8942574D01*
X1666776Y8943698D01*
X1663898Y8944270D01*
X1660963D01*
X1658084Y8943698D01*
X1655372Y8942574D01*
X1652932Y8940944D01*
X1650986Y8938998D01*
X1650742Y8938828D01*
X1650599Y8938776D01*
X1647225Y8938833D01*
X1645565Y8940493D01*
X1642395Y8942323D01*
X1638860Y8943270D01*
X1638530D01*
Y8929371D01*
Y8915470D01*
X1638860D01*
X1642395Y8916417D01*
X1645565Y8918247D01*
X1647225Y8919907D01*
X1650599Y8919963D01*
X1650742Y8919913D01*
X1650986Y8919742D01*
X1652932Y8917797D01*
X1655372Y8916166D01*
X1655874Y8915958D01*
Y8687054D01*
X1656097Y8685357D01*
X1656752Y8683776D01*
X1657794Y8682418D01*
X1796082Y8544130D01*
Y8380143D01*
X1761398Y8345460D01*
X1758703Y8345105D01*
X1755634Y8343834D01*
X1752997Y8341811D01*
X1750974Y8339174D01*
X1749703Y8336105D01*
X1749269Y8332810D01*
Y8327050D01*
X1749513Y8325195D01*
X1746672Y8323794D01*
X1744678Y8325787D01*
Y8480041D01*
X1747347Y8482094D01*
X1747583Y8482130D01*
X1750822Y8481703D01*
X1754222Y8482151D01*
X1757391Y8483464D01*
X1760112Y8485552D01*
X1762199Y8488272D01*
X1763512Y8491441D01*
X1763959Y8494841D01*
Y8499791D01*
X1763512Y8503191D01*
X1762199Y8506360D01*
X1760112Y8509080D01*
X1757391Y8511168D01*
X1754222Y8512480D01*
X1750822Y8512928D01*
X1747422Y8512480D01*
X1744253Y8511168D01*
X1741532Y8509080D01*
X1739836Y8506869D01*
X1738122Y8506581D01*
X1736409Y8506869D01*
X1734711Y8509080D01*
X1731991Y8511168D01*
X1728822Y8512480D01*
X1725422Y8512928D01*
X1722022Y8512480D01*
X1718853Y8511168D01*
X1716133Y8509080D01*
X1714045Y8506360D01*
X1713804Y8505779D01*
X1710557D01*
X1710526Y8505855D01*
X1708598Y8508367D01*
X1706086Y8510295D01*
X1703161Y8511506D01*
X1701522Y8511722D01*
Y8497316D01*
Y8482910D01*
X1703161Y8483126D01*
X1706086Y8484337D01*
X1708598Y8486265D01*
X1710526Y8488777D01*
X1710557Y8488853D01*
X1713804D01*
X1714045Y8488272D01*
X1716133Y8485552D01*
X1718612Y8483649D01*
Y8302697D01*
X1715924Y8301583D01*
X1713287Y8299561D01*
X1711264Y8296924D01*
X1709993Y8293854D01*
X1709559Y8290560D01*
X1709993Y8287266D01*
X1711264Y8284196D01*
X1713287Y8281559D01*
X1715924Y8279537D01*
X1716051Y8279484D01*
Y8276237D01*
X1715924Y8276183D01*
X1713287Y8274161D01*
X1711264Y8271525D01*
X1709993Y8268455D01*
X1709559Y8265160D01*
X1709993Y8261865D01*
X1711264Y8258796D01*
X1713287Y8256159D01*
X1715924Y8254136D01*
X1717358Y8253542D01*
X1717358Y8250295D01*
X1716428Y8249910D01*
X1714001Y8248047D01*
X1712138Y8245620D01*
X1710967Y8242794D01*
X1710765Y8241260D01*
X1725168D01*
X1739571D01*
X1739369Y8242794D01*
X1738198Y8245620D01*
X1736335Y8248047D01*
X1733908Y8249910D01*
X1732978Y8250295D01*
X1732978Y8253542D01*
X1734412Y8254136D01*
X1737049Y8256159D01*
X1739072Y8258796D01*
X1740343Y8261865D01*
X1740777Y8265160D01*
X1740343Y8268455D01*
X1739072Y8271525D01*
X1737049Y8274161D01*
X1734412Y8276183D01*
X1734285Y8276237D01*
Y8279484D01*
X1734412Y8279537D01*
X1737049Y8281559D01*
X1739072Y8284196D01*
X1740343Y8287266D01*
X1740777Y8290560D01*
X1740343Y8293854D01*
X1739072Y8296924D01*
X1737049Y8299561D01*
X1734412Y8301583D01*
X1731724Y8302697D01*
Y8315956D01*
X1734724Y8317198D01*
X1754314Y8297608D01*
X1755672Y8296566D01*
X1757253Y8295911D01*
X1758950Y8295688D01*
X1912112D01*
X1913809Y8295911D01*
X1915390Y8296566D01*
X1916748Y8297608D01*
X1934659Y8315519D01*
X1936503Y8314755D01*
X1939798Y8314321D01*
X1943092Y8314755D01*
X1946162Y8316027D01*
X1948799Y8318049D01*
X1950822Y8320685D01*
X1952093Y8323755D01*
X1952527Y8327050D01*
Y8332810D01*
X1952093Y8336105D01*
X1950822Y8339174D01*
X1948799Y8341811D01*
X1946162Y8343834D01*
X1943092Y8345105D01*
X1939798Y8345539D01*
X1936503Y8345105D01*
X1933434Y8343834D01*
X1930797Y8341811D01*
X1929963Y8340723D01*
X1926295Y8340410D01*
X1926158Y8340478D01*
X1925526Y8341086D01*
Y8825230D01*
X1925303Y8826927D01*
X1924648Y8828508D01*
X1923606Y8829866D01*
X1828950Y8924522D01*
X1829157Y8925024D01*
X1829730Y8927902D01*
Y8928231D01*
X1832730Y8929474D01*
X1833846Y8928358D01*
X1833847Y8928357D01*
X2024435Y8737769D01*
Y8375735D01*
X1715425Y8066725D01*
X1498761D01*
X1372970Y8192516D01*
X1459499Y8279045D01*
X1459499Y8279045D01*
X1460701Y8280612D01*
X1461457Y8282437D01*
X1461715Y8284395D01*
X1461715Y8284395D01*
Y9078521D01*
X1462545Y9078865D01*
X1465187Y9080893D01*
X1467215Y9083535D01*
X1468490Y9086613D01*
X1468924Y9089915D01*
X1468490Y9093217D01*
X1467800Y9094882D01*
X1489033Y9116115D01*
X1768517D01*
X1781865Y9102767D01*
D02*
G37*
G36*
X1429634Y9116129D02*
Y9087796D01*
X1427795Y9087035D01*
X1425152Y9085007D01*
X1424336Y9083943D01*
X1421336Y9084962D01*
Y9112075D01*
X1426634Y9117372D01*
X1429634Y9116129D01*
D02*
G37*
G36*
X2108698Y9155599D02*
X2109362Y9078312D01*
X2106596Y9077152D01*
X1804244Y9379504D01*
X1802886Y9380546D01*
X1801305Y9381201D01*
X1799608Y9381424D01*
X1738866D01*
X1737169Y9381201D01*
X1735588Y9380546D01*
X1734230Y9379504D01*
X1721294Y9366568D01*
X1720252Y9365210D01*
X1719597Y9363629D01*
X1719374Y9361932D01*
Y9359694D01*
X1716908Y9357802D01*
X1714880Y9355159D01*
X1714312Y9353788D01*
X1711065D01*
X1710706Y9354655D01*
X1708839Y9357089D01*
X1706405Y9358956D01*
X1703571Y9360130D01*
X1702030Y9360333D01*
Y9345931D01*
X1700530D01*
D01*
X1702030D01*
Y9331527D01*
X1703571Y9331730D01*
X1706405Y9332903D01*
X1708839Y9334771D01*
X1710706Y9337205D01*
X1711065Y9338071D01*
X1714312D01*
X1714880Y9336700D01*
X1716908Y9334058D01*
X1719550Y9332030D01*
X1722628Y9330756D01*
X1725930Y9330321D01*
X1729232Y9330756D01*
X1732310Y9332030D01*
X1734952Y9334058D01*
X1736980Y9336700D01*
X1737006Y9336765D01*
X1740254D01*
X1740280Y9336700D01*
X1742308Y9334058D01*
X1744950Y9332030D01*
X1748028Y9330756D01*
X1751330Y9330321D01*
X1754632Y9330756D01*
X1757710Y9332030D01*
X1760352Y9334058D01*
X1762380Y9336700D01*
X1762406Y9336765D01*
X1765654D01*
X1765680Y9336700D01*
X1767708Y9334058D01*
X1767843Y9331993D01*
X1708755Y9272905D01*
X1705792Y9274185D01*
X1705792Y9275501D01*
Y9284993D01*
X1696442D01*
Y9272994D01*
X1703085D01*
X1704601Y9272994D01*
X1705881Y9270031D01*
X1701969Y9266119D01*
X1620774D01*
X1618816Y9265861D01*
X1616992Y9265105D01*
X1615425Y9263903D01*
X1480551Y9129029D01*
X1457102Y9105580D01*
X1455437Y9106270D01*
X1452135Y9106704D01*
X1448832Y9106270D01*
X1445755Y9104995D01*
X1445746Y9104988D01*
X1442746Y9106467D01*
Y9116212D01*
X1716962Y9390428D01*
X1873869D01*
X2108698Y9155599D01*
D02*
G37*
G36*
X1868645Y9072870D02*
X1865476Y9071557D01*
X1862755Y9069470D01*
X1860668Y9066749D01*
X1859628Y9064239D01*
X1842813D01*
X1841473Y9064062D01*
X1840804Y9064752D01*
X1839946Y9066778D01*
X1848897Y9075729D01*
X1868054D01*
X1868645Y9072870D01*
D02*
G37*
G36*
X2100103Y9065101D02*
X2101028Y9051159D01*
X2098296Y9049920D01*
X2071775Y9076440D01*
X2071775Y9076440D01*
X1812115Y9336100D01*
Y9345803D01*
X1811892Y9347500D01*
X1811237Y9349081D01*
X1810195Y9350439D01*
X1797467Y9363167D01*
X1798455Y9366422D01*
X1798728Y9366476D01*
X2100103Y9065101D01*
D02*
G37*
G36*
X2006589Y9108929D02*
X2005514Y9105761D01*
X2004033Y9105566D01*
X2001199Y9104392D01*
X1998766Y9102525D01*
X1997811Y9101570D01*
X2006120Y9093262D01*
X2005060Y9092201D01*
X2006120Y9091141D01*
X1995935Y9080956D01*
X1997169Y9080009D01*
X2000003Y9078835D01*
X2003044Y9078435D01*
X2006085Y9078835D01*
X2006952Y9079194D01*
X2009248Y9076898D01*
X2008680Y9075527D01*
X2008245Y9072225D01*
X2008680Y9068923D01*
X2009955Y9065845D01*
X2011982Y9063203D01*
X2014625Y9061176D01*
X2016463Y9060414D01*
Y9044944D01*
X2013692Y9043796D01*
X1915966Y9141522D01*
X1914609Y9142563D01*
X1913027Y9143218D01*
X1911331Y9143442D01*
X1844980D01*
X1796200Y9192222D01*
Y9210300D01*
X1772500D01*
Y9201636D01*
X1769521Y9201282D01*
X1768427Y9203922D01*
X1766688Y9206188D01*
X1764422Y9207927D01*
X1761782Y9209021D01*
X1760450Y9209196D01*
Y9194800D01*
Y9180404D01*
X1761782Y9180579D01*
X1764422Y9181672D01*
X1766688Y9183412D01*
X1768427Y9185678D01*
X1769521Y9188318D01*
X1772500Y9187964D01*
Y9179300D01*
X1790578D01*
X1795137Y9174742D01*
X1793988Y9171970D01*
X1745586D01*
X1740106Y9177449D01*
Y9181244D01*
X1742001Y9182698D01*
X1743901Y9185174D01*
X1745095Y9188057D01*
X1745241Y9189169D01*
X1748267D01*
X1748379Y9188318D01*
X1749473Y9185678D01*
X1751212Y9183412D01*
X1753478Y9181672D01*
X1756118Y9180579D01*
X1757450Y9180404D01*
Y9194800D01*
Y9209196D01*
X1756118Y9209021D01*
X1753478Y9207927D01*
X1751212Y9206188D01*
X1749473Y9203922D01*
X1748379Y9201282D01*
X1748267Y9200432D01*
X1745241D01*
X1745095Y9201544D01*
X1743901Y9204426D01*
X1742001Y9206901D01*
X1739526Y9208801D01*
X1736644Y9209995D01*
X1733550Y9210402D01*
X1730457Y9209995D01*
X1727574Y9208801D01*
X1725099Y9206901D01*
X1723199Y9204426D01*
X1722005Y9201544D01*
X1721859Y9200432D01*
X1718833D01*
X1718721Y9201282D01*
X1717628Y9203922D01*
X1715888Y9206188D01*
X1713622Y9207927D01*
X1710982Y9209021D01*
X1709650Y9209196D01*
Y9194800D01*
Y9180404D01*
X1710982Y9180579D01*
X1713622Y9181672D01*
X1715888Y9183412D01*
X1717628Y9185678D01*
X1718721Y9188318D01*
X1718833Y9189169D01*
X1721859D01*
X1722005Y9188057D01*
X1723199Y9185174D01*
X1725099Y9182698D01*
X1726994Y9181244D01*
Y9174734D01*
X1727217Y9173037D01*
X1727872Y9171456D01*
X1728914Y9170098D01*
X1732271Y9166742D01*
X1731122Y9163970D01*
X1689832D01*
X1689306Y9164496D01*
Y9181244D01*
X1691201Y9182698D01*
X1693101Y9185174D01*
X1694295Y9188057D01*
X1694441Y9189169D01*
X1697467D01*
X1697579Y9188318D01*
X1698672Y9185678D01*
X1700412Y9183412D01*
X1702678Y9181672D01*
X1705318Y9180579D01*
X1706650Y9180404D01*
Y9194800D01*
Y9209196D01*
X1705318Y9209021D01*
X1702678Y9207927D01*
X1700412Y9206188D01*
X1698672Y9203922D01*
X1697579Y9201282D01*
X1697467Y9200432D01*
X1694441D01*
X1694295Y9201544D01*
X1693101Y9204426D01*
X1691201Y9206901D01*
X1688726Y9208801D01*
X1685844Y9209995D01*
X1682750Y9210402D01*
X1679657Y9209995D01*
X1676774Y9208801D01*
X1674299Y9206901D01*
X1672399Y9204426D01*
X1671205Y9201544D01*
X1671059Y9200432D01*
X1668033D01*
X1667921Y9201282D01*
X1666828Y9203922D01*
X1665088Y9206188D01*
X1662822Y9207927D01*
X1660182Y9209021D01*
X1658850Y9209196D01*
Y9194800D01*
Y9180404D01*
X1660182Y9180579D01*
X1662822Y9181672D01*
X1665088Y9183412D01*
X1666828Y9185678D01*
X1667921Y9188318D01*
X1668033Y9189169D01*
X1671059D01*
X1671205Y9188057D01*
X1672399Y9185174D01*
X1674299Y9182698D01*
X1676194Y9181244D01*
Y9161780D01*
X1676417Y9160083D01*
X1677072Y9158502D01*
X1678114Y9157144D01*
X1682480Y9152778D01*
X1683838Y9151736D01*
X1685419Y9151082D01*
X1687116Y9150858D01*
X1792350D01*
X1826958Y9116250D01*
X1828316Y9115208D01*
X1829897Y9114553D01*
X1831594Y9114330D01*
X1901988D01*
X2052876Y8963442D01*
Y8844353D01*
X2050104Y8843205D01*
X1990788Y8902521D01*
X1990788Y8902521D01*
X1983669Y8909640D01*
X1896694Y8996616D01*
X1896102Y8997070D01*
X1888955Y9004217D01*
X1889685Y9005980D01*
X1890132Y9009380D01*
X1889685Y9012780D01*
X1888372Y9015948D01*
X1886284Y9018669D01*
X1884073Y9020366D01*
X1883786Y9022080D01*
X1884073Y9023793D01*
X1886284Y9025491D01*
X1887608Y9027216D01*
X1894840D01*
X1896798Y9027473D01*
X1898622Y9028229D01*
X1900189Y9029431D01*
X1906539Y9035781D01*
X1906539Y9035781D01*
X1907741Y9037347D01*
X1908497Y9039172D01*
X1908755Y9041130D01*
Y9062284D01*
X1911526Y9063432D01*
X1935274Y9039684D01*
Y9016912D01*
X1926330D01*
Y8993212D01*
X1934994D01*
X1935348Y8990233D01*
X1932708Y8989139D01*
X1930442Y8987401D01*
X1928703Y8985134D01*
X1927609Y8982495D01*
X1927434Y8981161D01*
X1941830D01*
X1956226D01*
X1956051Y8982495D01*
X1954957Y8985134D01*
X1953218Y8987401D01*
X1950952Y8989139D01*
X1948312Y8990233D01*
X1948666Y8993212D01*
X1957330D01*
Y9016912D01*
X1948386D01*
Y9042400D01*
X1948163Y9044097D01*
X1947508Y9045678D01*
X1946466Y9047036D01*
X1896572Y9096930D01*
X1895214Y9097972D01*
X1893633Y9098627D01*
X1891936Y9098850D01*
X1825354D01*
X1823657Y9098627D01*
X1822076Y9097972D01*
X1820718Y9096930D01*
X1819678Y9095890D01*
X1819176Y9096097D01*
X1816297Y9096670D01*
X1813362D01*
X1810484Y9096097D01*
X1807772Y9094974D01*
X1805332Y9093344D01*
X1804069Y9092081D01*
X1802130Y9091567D01*
X1800191Y9092081D01*
X1798928Y9093344D01*
X1796995Y9094636D01*
Y9105900D01*
X1796737Y9107858D01*
X1795981Y9109683D01*
X1794779Y9111249D01*
X1794779Y9111249D01*
X1776999Y9129029D01*
X1775432Y9130231D01*
X1773608Y9130987D01*
X1771650Y9131245D01*
X1508082D01*
X1506935Y9134016D01*
X1623907Y9250989D01*
X1705102D01*
X1707060Y9251247D01*
X1708884Y9252003D01*
X1710451Y9253205D01*
X1782079Y9324833D01*
X1782079Y9324833D01*
X1783281Y9326400D01*
X1783748Y9327527D01*
X1785870Y9328347D01*
X1787090Y9328428D01*
X2006589Y9108929D01*
D02*
G37*
G36*
X1893625Y9067179D02*
Y9044263D01*
X1891707Y9042345D01*
X1887608D01*
X1886284Y9044069D01*
X1884073Y9045767D01*
X1883786Y9047480D01*
X1884073Y9049194D01*
X1886284Y9050891D01*
X1888372Y9053611D01*
X1889685Y9056780D01*
X1890132Y9060180D01*
X1889685Y9063580D01*
X1888372Y9066749D01*
X1886284Y9069470D01*
X1883564Y9071557D01*
X1880395Y9072870D01*
X1880986Y9075729D01*
X1885075D01*
X1893625Y9067179D01*
D02*
G37*
G36*
X2093646Y9036026D02*
Y8990389D01*
X2090874Y8989241D01*
X2059286Y9020829D01*
X2060228Y9023979D01*
X2063305Y9025254D01*
X2065948Y9027282D01*
X2069978Y9031312D01*
X2072006Y9033955D01*
X2073280Y9037032D01*
X2073715Y9040334D01*
X2073280Y9043637D01*
X2072006Y9046714D01*
X2069978Y9049357D01*
X2067336Y9051384D01*
X2065710Y9052057D01*
Y9060042D01*
X2068482Y9061190D01*
X2093646Y9036026D01*
D02*
G37*
G36*
X1621888Y9089344D02*
X1622532Y9088695D01*
X1623791Y9086068D01*
X1623130Y9083600D01*
Y9083270D01*
X1637030D01*
Y9081770D01*
X1638530D01*
Y9067870D01*
X1638860D01*
X1642395Y9068817D01*
X1645565Y9070647D01*
X1647225Y9072307D01*
X1650599Y9072363D01*
X1650742Y9072313D01*
X1650986Y9072142D01*
X1652932Y9070197D01*
X1655372Y9068566D01*
X1655874Y9068358D01*
Y9036050D01*
X1656097Y9034353D01*
X1656752Y9032772D01*
X1657794Y9031414D01*
X1688561Y9000647D01*
X1689919Y8999605D01*
X1691500Y8998950D01*
X1693197Y8998727D01*
X1787177D01*
X1808355Y8977549D01*
X1807915Y8976285D01*
X1806807Y8974854D01*
X1805432Y8975035D01*
X1701123D01*
X1632219Y9043939D01*
X1630652Y9045141D01*
X1628828Y9045897D01*
X1626870Y9046155D01*
X1577728D01*
X1576405Y9047880D01*
X1574193Y9049576D01*
X1573906Y9051290D01*
X1574193Y9053004D01*
X1576405Y9054700D01*
X1578492Y9057421D01*
X1578498Y9057434D01*
X1586230D01*
X1587927Y9057657D01*
X1589508Y9058312D01*
X1590866Y9059354D01*
X1620976Y9089464D01*
X1621888Y9089344D01*
D02*
G37*
G36*
X1677069Y9071459D02*
X1678332Y9070197D01*
X1680772Y9068566D01*
X1681274Y9068358D01*
Y9059926D01*
X1681497Y9058229D01*
X1682152Y9056648D01*
X1683194Y9055290D01*
X1695640Y9042844D01*
X1696998Y9041802D01*
X1698579Y9041147D01*
X1700276Y9040924D01*
X1832610D01*
X1834307Y9041147D01*
X1835888Y9041802D01*
X1837246Y9042844D01*
X1845529Y9051127D01*
X1862574D01*
X1862755Y9050891D01*
X1864967Y9049194D01*
X1865254Y9047480D01*
X1864967Y9045767D01*
X1862755Y9044069D01*
X1860668Y9041349D01*
X1859355Y9038180D01*
X1858908Y9034780D01*
X1859355Y9031380D01*
X1860668Y9028211D01*
X1862755Y9025491D01*
X1864967Y9023793D01*
X1865254Y9022080D01*
X1864967Y9020366D01*
X1862755Y9018669D01*
X1860668Y9015948D01*
X1859355Y9012780D01*
X1858908Y9009380D01*
X1859355Y9005980D01*
X1860668Y9002811D01*
X1862755Y9000090D01*
X1864967Y8998394D01*
X1865254Y8996680D01*
X1864967Y8994966D01*
X1862755Y8993270D01*
X1860668Y8990549D01*
X1859355Y8987380D01*
X1858908Y8983980D01*
X1859355Y8980580D01*
X1860668Y8977411D01*
X1862755Y8974691D01*
X1865476Y8972603D01*
X1866056Y8972363D01*
Y8969115D01*
X1865981Y8969084D01*
X1863469Y8967156D01*
X1861541Y8964644D01*
X1860329Y8961719D01*
X1860114Y8960080D01*
X1874520D01*
X1888926D01*
X1888710Y8961719D01*
X1887499Y8964644D01*
X1885571Y8967156D01*
X1883059Y8969084D01*
X1882984Y8969115D01*
Y8972363D01*
X1883564Y8972603D01*
X1886284Y8974691D01*
X1888609Y8974843D01*
X2036112Y8827341D01*
Y8751408D01*
X2033340Y8750260D01*
X1905926Y8877674D01*
X1907169Y8880674D01*
X1907723Y8880674D01*
X1907723Y8880674D01*
X1907789Y8880674D01*
X1918486D01*
Y8890024D01*
X1905486D01*
X1905486Y8882977D01*
Y8882911D01*
D01*
X1905486Y8882357D01*
X1904540Y8881965D01*
X1902486Y8881114D01*
X1866217Y8917383D01*
X1867365Y8920155D01*
X1890020D01*
Y8946205D01*
X1885549D01*
X1884530Y8949205D01*
X1885571Y8950004D01*
X1887499Y8952516D01*
X1888710Y8955441D01*
X1888926Y8957080D01*
X1874520D01*
X1860114D01*
X1860329Y8955441D01*
X1861541Y8952516D01*
X1863469Y8950004D01*
X1864509Y8949205D01*
X1863491Y8946205D01*
X1859020D01*
X1859020Y8946205D01*
Y8946205D01*
X1856709Y8947738D01*
X1794528Y9009919D01*
X1793170Y9010961D01*
X1791589Y9011616D01*
X1789892Y9011839D01*
X1695913D01*
X1668986Y9038766D01*
Y9068358D01*
X1669488Y9068566D01*
X1671928Y9070197D01*
X1673191Y9071459D01*
X1675130Y9071973D01*
X1677069Y9071459D01*
D02*
G37*
G36*
Y8919059D02*
X1678332Y8917797D01*
X1680772Y8916166D01*
X1681274Y8915958D01*
Y8681401D01*
X1678502Y8680253D01*
X1668986Y8689770D01*
Y8915958D01*
X1669488Y8916166D01*
X1671928Y8917797D01*
X1673191Y8919059D01*
X1675130Y8919573D01*
X1677069Y8919059D01*
D02*
G37*
G36*
X1702469D02*
X1703732Y8917797D01*
X1706172Y8916166D01*
X1706674Y8915958D01*
Y8670487D01*
X1703902Y8669339D01*
X1694386Y8678855D01*
Y8915958D01*
X1694888Y8916166D01*
X1697328Y8917797D01*
X1698591Y8919059D01*
X1700530Y8919573D01*
X1702469Y8919059D01*
D02*
G37*
G36*
X1804082Y8365681D02*
Y8355886D01*
X1792537Y8344341D01*
X1790692Y8345105D01*
X1787398Y8345539D01*
X1784104Y8345105D01*
X1783636Y8344911D01*
X1781936Y8347455D01*
X1801310Y8366829D01*
X1804082Y8365681D01*
D02*
G37*
G36*
X1727869Y8919059D02*
X1729132Y8917797D01*
X1731572Y8916166D01*
X1734284Y8915043D01*
X1737162Y8914470D01*
X1740098D01*
X1742976Y8915043D01*
X1743478Y8915250D01*
X1828594Y8830134D01*
Y8343264D01*
X1828194Y8342996D01*
X1825194Y8344600D01*
Y8556645D01*
X1824971Y8558342D01*
X1824316Y8559923D01*
X1823274Y8561281D01*
X1719786Y8664769D01*
Y8915958D01*
X1720288Y8916166D01*
X1722728Y8917797D01*
X1723991Y8919059D01*
X1725930Y8919573D01*
X1727869Y8919059D01*
D02*
G37*
G36*
X1912414Y8822515D02*
Y8345278D01*
X1911104Y8345105D01*
X1908034Y8343834D01*
X1905397Y8341811D01*
X1903374Y8339174D01*
X1903322Y8339047D01*
X1900074D01*
X1900022Y8339174D01*
X1897999Y8341811D01*
X1895362Y8343834D01*
X1893412Y8344641D01*
X1893128Y8345328D01*
X1892506Y8346138D01*
Y8831580D01*
X1892283Y8833277D01*
X1891628Y8834858D01*
X1890586Y8836216D01*
X1815332Y8911470D01*
X1816093Y8913834D01*
X1816528Y8914516D01*
X1819176Y8915043D01*
X1819678Y8915250D01*
X1912414Y8822515D01*
D02*
G37*
G36*
X1879394Y8828864D02*
Y8343550D01*
X1879617Y8341853D01*
X1879762Y8341504D01*
X1877975Y8339174D01*
X1877922Y8339047D01*
X1874674D01*
X1874621Y8339174D01*
X1872599Y8341811D01*
X1869962Y8343834D01*
X1868012Y8344641D01*
X1867728Y8345328D01*
X1867106Y8346138D01*
Y8832850D01*
X1866883Y8834547D01*
X1866228Y8836128D01*
X1865186Y8837486D01*
X1792832Y8909840D01*
X1793788Y8913126D01*
X1794887Y8913371D01*
X1879394Y8828864D01*
D02*
G37*
G36*
X1853994Y8830134D02*
Y8343550D01*
X1854217Y8341853D01*
X1854362Y8341504D01*
X1852574Y8339174D01*
X1852522Y8339047D01*
X1849274D01*
X1849221Y8339174D01*
X1847199Y8341811D01*
X1844562Y8343834D01*
X1841706Y8345016D01*
Y8832850D01*
X1841483Y8834547D01*
X1840828Y8836128D01*
X1839786Y8837486D01*
X1766204Y8911068D01*
X1767151Y8913994D01*
X1769570Y8914559D01*
X1853994Y8830134D01*
D02*
G37*
G36*
X1903374Y8320685D02*
X1905397Y8318049D01*
X1908034Y8316027D01*
X1911104Y8314755D01*
X1911108Y8314754D01*
X1912183Y8311587D01*
X1909396Y8308800D01*
X1761666D01*
X1758742Y8311724D01*
X1760143Y8314565D01*
X1761998Y8314321D01*
X1765293Y8314755D01*
X1768362Y8316027D01*
X1770999Y8318049D01*
X1773022Y8320685D01*
X1773074Y8320813D01*
X1776322D01*
X1776375Y8320685D01*
X1778397Y8318049D01*
X1781034Y8316027D01*
X1784104Y8314755D01*
X1787398Y8314321D01*
X1790692Y8314755D01*
X1793762Y8316027D01*
X1796399Y8318049D01*
X1798421Y8320685D01*
X1798474Y8320813D01*
X1801722D01*
X1801774Y8320685D01*
X1803797Y8318049D01*
X1806434Y8316027D01*
X1809503Y8314755D01*
X1812798Y8314321D01*
X1816093Y8314755D01*
X1819162Y8316027D01*
X1821799Y8318049D01*
X1823822Y8320685D01*
X1823874Y8320813D01*
X1827122D01*
X1827175Y8320685D01*
X1829197Y8318049D01*
X1831834Y8316027D01*
X1834904Y8314755D01*
X1838198Y8314321D01*
X1841492Y8314755D01*
X1844562Y8316027D01*
X1847199Y8318049D01*
X1849221Y8320685D01*
X1849274Y8320813D01*
X1852522D01*
X1852574Y8320685D01*
X1854597Y8318049D01*
X1857234Y8316027D01*
X1860303Y8314755D01*
X1863598Y8314321D01*
X1866893Y8314755D01*
X1869962Y8316027D01*
X1872599Y8318049D01*
X1874621Y8320685D01*
X1874674Y8320813D01*
X1877922D01*
X1877975Y8320685D01*
X1879997Y8318049D01*
X1882634Y8316027D01*
X1885703Y8314755D01*
X1888998Y8314321D01*
X1892292Y8314755D01*
X1895362Y8316027D01*
X1897999Y8318049D01*
X1900022Y8320685D01*
X1900074Y8320813D01*
X1903322D01*
X1903374Y8320685D01*
D02*
G37*
G36*
X2036112Y8362096D02*
Y8304706D01*
X1998781Y8267375D01*
X1995614Y8268450D01*
X1995613Y8268455D01*
X1994341Y8271525D01*
X1992319Y8274161D01*
X1989682Y8276183D01*
X1989555Y8276237D01*
Y8279484D01*
X1989682Y8279537D01*
X1992319Y8281559D01*
X1994341Y8284196D01*
X1995613Y8287266D01*
X1996047Y8290560D01*
X1995613Y8293854D01*
X1994341Y8296924D01*
X1992319Y8299561D01*
X1989682Y8301583D01*
X1986613Y8302855D01*
X1983318Y8303289D01*
X1977628D01*
X1977492Y8303431D01*
X1976237Y8306141D01*
X2033340Y8363244D01*
X2036112Y8362096D01*
D02*
G37*
G36*
X2044748Y8290878D02*
Y8287942D01*
X1999511Y8242704D01*
X1996451Y8243591D01*
X1995789Y8245839D01*
X2041976Y8292026D01*
X2044748Y8290878D01*
D02*
G37*
G36*
X2052876Y8273607D02*
Y8266351D01*
X1998798Y8212274D01*
X1995957Y8213675D01*
X1996047Y8214360D01*
X1995613Y8217654D01*
X1994849Y8219500D01*
X2050104Y8274755D01*
X2052876Y8273607D01*
D02*
G37*
G36*
X1711264Y8207996D02*
X1713287Y8205359D01*
X1715924Y8203337D01*
X1716051Y8203284D01*
Y8200037D01*
X1715924Y8199984D01*
X1713287Y8197961D01*
X1712191Y8196532D01*
X1669326D01*
X1659810Y8206049D01*
X1660958Y8208820D01*
X1710923D01*
X1711264Y8207996D01*
D02*
G37*
G36*
X2068876Y8238807D02*
Y8235870D01*
X1999511Y8166505D01*
X1996451Y8167391D01*
X1995789Y8169639D01*
X2066104Y8239955D01*
X2068876Y8238807D01*
D02*
G37*
G36*
X1964647Y8290644D02*
X1964837Y8290499D01*
X1965263Y8287266D01*
X1966534Y8284196D01*
X1968557Y8281559D01*
X1971194Y8279537D01*
X1971321Y8279484D01*
Y8276237D01*
X1971194Y8276183D01*
X1968557Y8274161D01*
X1966534Y8271525D01*
X1965263Y8268455D01*
X1964829Y8265160D01*
X1965263Y8261865D01*
X1966534Y8258796D01*
X1968557Y8256159D01*
X1971194Y8254136D01*
X1971321Y8254084D01*
Y8250836D01*
X1971194Y8250784D01*
X1968557Y8248761D01*
X1966534Y8246124D01*
X1965263Y8243054D01*
X1964829Y8239760D01*
X1965263Y8236465D01*
X1966534Y8233395D01*
X1968557Y8230759D01*
X1971194Y8228737D01*
X1971321Y8228683D01*
Y8225436D01*
X1971194Y8225383D01*
X1968557Y8223361D01*
X1966534Y8220724D01*
X1965263Y8217654D01*
X1964829Y8214360D01*
X1965263Y8211066D01*
X1966534Y8207996D01*
X1968557Y8205359D01*
X1971194Y8203337D01*
X1971321Y8203284D01*
Y8200037D01*
X1971194Y8199984D01*
X1968557Y8197961D01*
X1966534Y8195324D01*
X1965263Y8192255D01*
X1964829Y8188960D01*
X1965263Y8185665D01*
X1966534Y8182596D01*
X1968557Y8179959D01*
X1971194Y8177936D01*
X1971321Y8177883D01*
Y8174636D01*
X1971194Y8174584D01*
X1968557Y8172560D01*
X1966534Y8169924D01*
X1965263Y8166854D01*
X1964829Y8163560D01*
X1965263Y8160266D01*
X1966534Y8157195D01*
X1968557Y8154559D01*
X1971194Y8152537D01*
X1971321Y8152484D01*
Y8149236D01*
X1971194Y8149183D01*
X1968557Y8147161D01*
X1966534Y8144525D01*
X1965263Y8141454D01*
X1964829Y8138160D01*
X1965263Y8134866D01*
X1966534Y8131796D01*
X1968557Y8129160D01*
X1971194Y8127136D01*
X1971321Y8127084D01*
Y8123837D01*
X1971194Y8123784D01*
X1968557Y8121761D01*
X1966534Y8119124D01*
X1965263Y8116055D01*
X1964829Y8112760D01*
X1965263Y8109465D01*
X1966534Y8106396D01*
X1968557Y8103759D01*
X1971194Y8101736D01*
X1974263Y8100465D01*
X1977558Y8100031D01*
X1983318D01*
X1986613Y8100465D01*
X1989682Y8101736D01*
X1992319Y8103759D01*
X1994341Y8106396D01*
X1995613Y8109465D01*
X1996047Y8112760D01*
X1995613Y8116055D01*
X1994341Y8119124D01*
X1992319Y8121761D01*
X1989682Y8123784D01*
X1989555Y8123837D01*
Y8127084D01*
X1989682Y8127136D01*
X1992319Y8129160D01*
X1994341Y8131796D01*
X1995613Y8134866D01*
X1996047Y8138160D01*
X1995613Y8141454D01*
X1994849Y8143300D01*
X2074874Y8223325D01*
X2077646Y8222177D01*
Y8116116D01*
X2017346Y8055816D01*
X1950642D01*
X1948229Y8058229D01*
X1948425Y8061223D01*
X1948799Y8061509D01*
X1950822Y8064146D01*
X1952093Y8067216D01*
X1952527Y8070510D01*
Y8076270D01*
X1952093Y8079564D01*
X1950822Y8082634D01*
X1948799Y8085271D01*
X1946162Y8087294D01*
X1943092Y8088565D01*
X1939798Y8088999D01*
X1936503Y8088565D01*
X1933434Y8087294D01*
X1930797Y8085271D01*
X1928775Y8082634D01*
X1928722Y8082507D01*
X1925474D01*
X1925421Y8082634D01*
X1923399Y8085271D01*
X1920762Y8087294D01*
X1917693Y8088565D01*
X1914398Y8088999D01*
X1911104Y8088565D01*
X1908034Y8087294D01*
X1905397Y8085271D01*
X1903374Y8082634D01*
X1903322Y8082507D01*
X1900074D01*
X1900022Y8082634D01*
X1897999Y8085271D01*
X1895362Y8087294D01*
X1892292Y8088565D01*
X1888998Y8088999D01*
X1885703Y8088565D01*
X1882634Y8087294D01*
X1879997Y8085271D01*
X1877975Y8082634D01*
X1877922Y8082507D01*
X1874674D01*
X1874621Y8082634D01*
X1872599Y8085271D01*
X1869962Y8087294D01*
X1866893Y8088565D01*
X1863598Y8088999D01*
X1860303Y8088565D01*
X1857234Y8087294D01*
X1854597Y8085271D01*
X1852574Y8082634D01*
X1852522Y8082507D01*
X1849274D01*
X1849221Y8082634D01*
X1847199Y8085271D01*
X1844562Y8087294D01*
X1841492Y8088565D01*
X1838198Y8088999D01*
X1834904Y8088565D01*
X1831834Y8087294D01*
X1829197Y8085271D01*
X1827175Y8082634D01*
X1827122Y8082507D01*
X1823874D01*
X1823822Y8082634D01*
X1821799Y8085271D01*
X1819162Y8087294D01*
X1816093Y8088565D01*
X1812798Y8088999D01*
X1809503Y8088565D01*
X1806434Y8087294D01*
X1803797Y8085271D01*
X1801774Y8082634D01*
X1801722Y8082507D01*
X1798474D01*
X1798421Y8082634D01*
X1796399Y8085271D01*
X1793762Y8087294D01*
X1790692Y8088565D01*
X1787398Y8088999D01*
X1784104Y8088565D01*
X1781034Y8087294D01*
X1778397Y8085271D01*
X1776375Y8082634D01*
X1776322Y8082507D01*
X1773074D01*
X1773022Y8082634D01*
X1770999Y8085271D01*
X1768362Y8087294D01*
X1765293Y8088565D01*
X1763182Y8088843D01*
X1761972Y8091807D01*
X1761971Y8091876D01*
X1961977Y8291881D01*
X1964647Y8290644D01*
D02*
G37*
G36*
X1928775Y8064146D02*
X1930797Y8061509D01*
X1933242Y8059634D01*
Y8057388D01*
X1933465Y8055691D01*
X1934120Y8054110D01*
X1935162Y8052752D01*
X1939237Y8048678D01*
X1938089Y8045906D01*
X1920789D01*
X1919176Y8047520D01*
Y8058829D01*
X1920762Y8059487D01*
X1923399Y8061509D01*
X1925421Y8064146D01*
X1925474Y8064273D01*
X1928722D01*
X1928775Y8064146D01*
D02*
G37*
G36*
X1903374D02*
X1905397Y8061509D01*
X1906064Y8060998D01*
Y8044804D01*
X1906287Y8043107D01*
X1906942Y8041526D01*
X1907418Y8040906D01*
X1906359Y8037906D01*
X1900226D01*
X1894548Y8043583D01*
Y8059149D01*
X1895362Y8059487D01*
X1897999Y8061509D01*
X1900022Y8064146D01*
X1900074Y8064273D01*
X1903322D01*
X1903374Y8064146D01*
D02*
G37*
G36*
X1877975D02*
X1879997Y8061509D01*
X1881436Y8060405D01*
Y8040868D01*
X1881660Y8039171D01*
X1882314Y8037590D01*
X1883356Y8036232D01*
X1886911Y8032678D01*
X1885763Y8029906D01*
X1875206D01*
X1870154Y8034958D01*
Y8059634D01*
X1872599Y8061509D01*
X1874621Y8064146D01*
X1874674Y8064273D01*
X1877922D01*
X1877975Y8064146D01*
D02*
G37*
G36*
X1852574D02*
X1854597Y8061509D01*
X1857042Y8059634D01*
Y8032242D01*
X1857265Y8030545D01*
X1857920Y8028964D01*
X1858962Y8027606D01*
X1864049Y8022520D01*
X1862901Y8019748D01*
X1841706D01*
Y8057182D01*
X1842328Y8057992D01*
X1842612Y8058679D01*
X1844562Y8059487D01*
X1847199Y8061509D01*
X1849221Y8064146D01*
X1849274Y8064273D01*
X1852522D01*
X1852574Y8064146D01*
D02*
G37*
G36*
X1827175D02*
X1828962Y8061816D01*
X1828817Y8061467D01*
X1828594Y8059770D01*
Y8014970D01*
X1826539Y8012815D01*
X1823979Y8012552D01*
X1816306Y8020226D01*
Y8057182D01*
X1816928Y8057992D01*
X1817212Y8058679D01*
X1819162Y8059487D01*
X1821799Y8061509D01*
X1823822Y8064146D01*
X1823874Y8064273D01*
X1827122D01*
X1827175Y8064146D01*
D02*
G37*
%LPC*%
G36*
X1523586Y8897642D02*
X1521436D01*
Y8888198D01*
X1534332D01*
X1534157Y8889531D01*
X1533064Y8892170D01*
X1531324Y8894436D01*
X1529058Y8896176D01*
X1526418Y8897269D01*
X1523586Y8897642D01*
D02*
G37*
G36*
X1518436D02*
X1516286D01*
X1513454Y8897269D01*
X1510814Y8896176D01*
X1508548Y8894436D01*
X1506808Y8892170D01*
X1505715Y8889531D01*
X1505540Y8888198D01*
X1518436D01*
Y8897642D01*
D02*
G37*
G36*
X1534332Y8885198D02*
X1521436D01*
Y8875754D01*
X1523586D01*
X1526418Y8876127D01*
X1529058Y8877220D01*
X1531324Y8878960D01*
X1533064Y8881226D01*
X1534157Y8883865D01*
X1534332Y8885198D01*
D02*
G37*
G36*
X1518436D02*
X1505540D01*
X1505715Y8883865D01*
X1506808Y8881226D01*
X1508548Y8878960D01*
X1510814Y8877220D01*
X1513454Y8876127D01*
X1516286Y8875754D01*
X1518436D01*
Y8885198D01*
D02*
G37*
G36*
X1534436Y8872148D02*
X1521436D01*
Y8862798D01*
X1534436D01*
Y8872148D01*
D02*
G37*
G36*
X1518436D02*
X1505436D01*
Y8862798D01*
X1518436D01*
Y8872148D01*
D02*
G37*
G36*
X1534436Y8859799D02*
X1521436D01*
Y8850448D01*
X1534436D01*
Y8859799D01*
D02*
G37*
G36*
X1518436D02*
X1505436D01*
Y8850448D01*
X1518436D01*
Y8859799D01*
D02*
G37*
G36*
X1981654Y8746718D02*
X1978206D01*
X1974825Y8746046D01*
X1971641Y8744727D01*
X1968774Y8742811D01*
X1966337Y8740374D01*
X1964422Y8737507D01*
X1963103Y8734323D01*
X1962430Y8730942D01*
Y8727495D01*
X1963103Y8724113D01*
X1964422Y8720928D01*
X1966337Y8718062D01*
X1968774Y8715625D01*
X1971641Y8713710D01*
X1974825Y8712391D01*
X1978206Y8711718D01*
X1981654D01*
X1985035Y8712391D01*
X1988219Y8713710D01*
X1991086Y8715625D01*
X1993523Y8718062D01*
X1995438Y8720928D01*
X1996758Y8724113D01*
X1997430Y8727495D01*
Y8730942D01*
X1996758Y8734323D01*
X1995438Y8737507D01*
X1993523Y8740374D01*
X1991086Y8742811D01*
X1988219Y8744727D01*
X1985035Y8746046D01*
X1981654Y8746718D01*
D02*
G37*
G36*
X1485592Y8746210D02*
X1482144D01*
X1478763Y8745538D01*
X1475579Y8744218D01*
X1472712Y8742303D01*
X1470275Y8739866D01*
X1468360Y8737000D01*
X1467041Y8733815D01*
X1466368Y8730433D01*
Y8726987D01*
X1467041Y8723605D01*
X1468360Y8720421D01*
X1470275Y8717554D01*
X1472712Y8715117D01*
X1475579Y8713202D01*
X1478763Y8711882D01*
X1482144Y8711210D01*
X1485592D01*
X1488973Y8711882D01*
X1492157Y8713202D01*
X1495024Y8715117D01*
X1497461Y8717554D01*
X1499376Y8720421D01*
X1500695Y8723605D01*
X1501368Y8726987D01*
Y8730433D01*
X1500695Y8733815D01*
X1499376Y8737000D01*
X1497461Y8739866D01*
X1495024Y8742303D01*
X1492157Y8744218D01*
X1488973Y8745538D01*
X1485592Y8746210D01*
D02*
G37*
G36*
X1982670Y8565362D02*
X1979222D01*
X1975841Y8564689D01*
X1972657Y8563370D01*
X1969790Y8561455D01*
X1967353Y8559017D01*
X1965438Y8556151D01*
X1964118Y8552966D01*
X1963446Y8549586D01*
Y8546138D01*
X1964118Y8542758D01*
X1965438Y8539573D01*
X1967353Y8536707D01*
X1969790Y8534269D01*
X1972657Y8532354D01*
X1975841Y8531035D01*
X1979222Y8530362D01*
X1982670D01*
X1986051Y8531035D01*
X1989235Y8532354D01*
X1992102Y8534269D01*
X1994539Y8536707D01*
X1996454Y8539573D01*
X1997773Y8542758D01*
X1998446Y8546138D01*
Y8549586D01*
X1997773Y8552966D01*
X1996454Y8556151D01*
X1994539Y8559017D01*
X1992102Y8561455D01*
X1989235Y8563370D01*
X1986051Y8564689D01*
X1982670Y8565362D01*
D02*
G37*
G36*
X1485592Y8565108D02*
X1482144D01*
X1478763Y8564435D01*
X1475579Y8563116D01*
X1472712Y8561201D01*
X1470275Y8558763D01*
X1468360Y8555897D01*
X1467041Y8552712D01*
X1466368Y8549332D01*
Y8545884D01*
X1467041Y8542504D01*
X1468360Y8539319D01*
X1470275Y8536453D01*
X1472712Y8534015D01*
X1475579Y8532100D01*
X1478763Y8530781D01*
X1482144Y8530108D01*
X1485592D01*
X1488973Y8530781D01*
X1492157Y8532100D01*
X1495024Y8534015D01*
X1497461Y8536453D01*
X1499376Y8539319D01*
X1500695Y8542504D01*
X1501368Y8545884D01*
Y8549332D01*
X1500695Y8552712D01*
X1499376Y8555897D01*
X1497461Y8558763D01*
X1495024Y8561201D01*
X1492157Y8563116D01*
X1488973Y8564435D01*
X1485592Y8565108D01*
D02*
G37*
G36*
X1701220Y8409470D02*
X1691870D01*
Y8397471D01*
X1701220D01*
Y8409470D01*
D02*
G37*
G36*
X1666470Y8409366D02*
Y8397471D01*
X1675914D01*
Y8398620D01*
X1675541Y8401453D01*
X1674447Y8404092D01*
X1672708Y8406358D01*
X1670442Y8408098D01*
X1667802Y8409191D01*
X1666470Y8409366D01*
D02*
G37*
G36*
X1688870Y8409470D02*
X1679520D01*
Y8397471D01*
X1688870D01*
Y8409470D01*
D02*
G37*
G36*
X1663470Y8409366D02*
X1662138Y8409191D01*
X1659498Y8408098D01*
X1657232Y8406358D01*
X1655493Y8404092D01*
X1654399Y8401453D01*
X1654026Y8398620D01*
Y8397471D01*
X1663470D01*
Y8409366D01*
D02*
G37*
G36*
X1675914Y8394471D02*
X1666470D01*
Y8382574D01*
X1667802Y8382749D01*
X1670442Y8383843D01*
X1672708Y8385582D01*
X1674447Y8387848D01*
X1675541Y8390488D01*
X1675914Y8393320D01*
Y8394471D01*
D02*
G37*
G36*
X1663470D02*
X1654026D01*
Y8393320D01*
X1654399Y8390488D01*
X1655493Y8387848D01*
X1657232Y8385582D01*
X1659498Y8383843D01*
X1662138Y8382749D01*
X1663470Y8382574D01*
Y8394471D01*
D02*
G37*
G36*
X1701220D02*
X1691870D01*
Y8382470D01*
X1701220D01*
Y8394471D01*
D02*
G37*
G36*
X1688870D02*
X1679520D01*
Y8382470D01*
X1688870D01*
Y8394471D01*
D02*
G37*
G36*
X1691108Y8344333D02*
Y8331431D01*
X1701328D01*
Y8332810D01*
X1700929Y8335844D01*
X1699758Y8338670D01*
X1697896Y8341097D01*
X1695468Y8342960D01*
X1692641Y8344131D01*
X1691108Y8344333D01*
D02*
G37*
G36*
X1701328Y8328431D02*
X1691108D01*
Y8315527D01*
X1692641Y8315729D01*
X1695468Y8316900D01*
X1697896Y8318762D01*
X1699758Y8321190D01*
X1700929Y8324017D01*
X1701328Y8327050D01*
Y8328431D01*
D02*
G37*
G36*
X1665708Y8344333D02*
Y8329931D01*
Y8315527D01*
X1667241Y8315729D01*
X1670068Y8316900D01*
X1672496Y8318762D01*
X1674358Y8321190D01*
X1675344Y8323571D01*
X1676908Y8323807D01*
X1678472Y8323571D01*
X1679458Y8321190D01*
X1681320Y8318762D01*
X1683748Y8316900D01*
X1686575Y8315729D01*
X1688108Y8315527D01*
Y8329931D01*
Y8344333D01*
X1686575Y8344131D01*
X1683748Y8342960D01*
X1681320Y8341097D01*
X1679458Y8338670D01*
X1678472Y8336290D01*
X1676908Y8336052D01*
X1675344Y8336290D01*
X1674358Y8338670D01*
X1672496Y8341097D01*
X1670068Y8342960D01*
X1667241Y8344131D01*
X1665708Y8344333D01*
D02*
G37*
G36*
X1699030Y9360333D02*
X1697489Y9360130D01*
X1694655Y9358956D01*
X1692221Y9357089D01*
X1690354Y9354655D01*
X1689180Y9351821D01*
X1688779Y9348780D01*
Y9347431D01*
X1699030D01*
Y9360333D01*
D02*
G37*
G36*
Y9344431D02*
X1688779D01*
Y9343080D01*
X1689180Y9340038D01*
X1690354Y9337205D01*
X1692221Y9334771D01*
X1694655Y9332903D01*
X1697489Y9331730D01*
X1699030Y9331527D01*
Y9344431D01*
D02*
G37*
G36*
X1705792Y9299994D02*
X1696442D01*
Y9287993D01*
X1705792D01*
Y9299994D01*
D02*
G37*
G36*
X1671042Y9299890D02*
Y9287993D01*
X1680486D01*
Y9289144D01*
X1680113Y9291976D01*
X1679019Y9294616D01*
X1677280Y9296882D01*
X1675014Y9298621D01*
X1672374Y9299715D01*
X1671042Y9299890D01*
D02*
G37*
G36*
X1693442Y9299994D02*
X1684092D01*
Y9287993D01*
X1693442D01*
Y9299994D01*
D02*
G37*
G36*
X1668042Y9299890D02*
X1666710Y9299715D01*
X1664070Y9298621D01*
X1661804Y9296882D01*
X1660065Y9294616D01*
X1658971Y9291976D01*
X1658598Y9289144D01*
Y9287993D01*
X1668042D01*
Y9299890D01*
D02*
G37*
G36*
X1680486Y9284993D02*
X1671042D01*
Y9273098D01*
X1672374Y9273273D01*
X1675014Y9274366D01*
X1677280Y9276106D01*
X1679019Y9278372D01*
X1680113Y9281011D01*
X1680486Y9283844D01*
Y9284993D01*
D02*
G37*
G36*
X1668042D02*
X1658598D01*
Y9283844D01*
X1658971Y9281011D01*
X1660065Y9278372D01*
X1661804Y9276106D01*
X1664070Y9274366D01*
X1666710Y9273273D01*
X1668042Y9273098D01*
Y9284993D01*
D02*
G37*
G36*
X1693442D02*
X1684092D01*
Y9272994D01*
X1693442D01*
Y9284993D01*
D02*
G37*
G36*
X1655850Y9209196D02*
X1654518Y9209021D01*
X1651878Y9207927D01*
X1649612Y9206188D01*
X1647872Y9203922D01*
X1646779Y9201282D01*
X1646406Y9198450D01*
Y9196300D01*
X1655850D01*
Y9209196D01*
D02*
G37*
G36*
Y9193300D02*
X1646406D01*
Y9191150D01*
X1646779Y9188318D01*
X1647872Y9185678D01*
X1649612Y9183412D01*
X1651878Y9181672D01*
X1654518Y9180579D01*
X1655850Y9180404D01*
Y9193300D01*
D02*
G37*
G36*
X1888418Y9185948D02*
X1879068D01*
Y9173948D01*
X1888418D01*
Y9185948D01*
D02*
G37*
G36*
X1853668Y9185844D02*
Y9173948D01*
X1863112D01*
Y9175098D01*
X1862739Y9177930D01*
X1861646Y9180570D01*
X1859906Y9182836D01*
X1857640Y9184575D01*
X1855000Y9185669D01*
X1853668Y9185844D01*
D02*
G37*
G36*
X1876068Y9185948D02*
X1866718D01*
Y9173948D01*
X1876068D01*
Y9185948D01*
D02*
G37*
G36*
X1850668Y9185844D02*
X1849336Y9185669D01*
X1846696Y9184575D01*
X1844430Y9182836D01*
X1842690Y9180570D01*
X1841597Y9177930D01*
X1841224Y9175098D01*
Y9173948D01*
X1850668D01*
Y9185844D01*
D02*
G37*
G36*
X1863112Y9170948D02*
X1853668D01*
Y9159052D01*
X1855000Y9159227D01*
X1857640Y9160320D01*
X1859906Y9162060D01*
X1861646Y9164326D01*
X1862739Y9166965D01*
X1863112Y9169798D01*
Y9170948D01*
D02*
G37*
G36*
X1850668D02*
X1841224D01*
Y9169798D01*
X1841597Y9166965D01*
X1842690Y9164326D01*
X1844430Y9162060D01*
X1846696Y9160320D01*
X1849336Y9159227D01*
X1850668Y9159052D01*
Y9170948D01*
D02*
G37*
G36*
X1888418D02*
X1879068D01*
Y9158948D01*
X1888418D01*
Y9170948D01*
D02*
G37*
G36*
X1876068D02*
X1866718D01*
Y9158948D01*
X1876068D01*
Y9170948D01*
D02*
G37*
G36*
X1995690Y9099449D02*
X1994735Y9098494D01*
X1992868Y9096061D01*
X1991694Y9093227D01*
X1991293Y9090186D01*
X1991694Y9087144D01*
X1992868Y9084310D01*
X1993814Y9083077D01*
X2002938Y9092201D01*
X1995690Y9099449D01*
D02*
G37*
G36*
X1956226Y8978162D02*
X1943330D01*
Y8968718D01*
X1945480D01*
X1948312Y8969091D01*
X1950952Y8970184D01*
X1953218Y8971924D01*
X1954957Y8974190D01*
X1956051Y8976830D01*
X1956226Y8978162D01*
D02*
G37*
G36*
X1940330D02*
X1927434D01*
X1927609Y8976830D01*
X1928703Y8974190D01*
X1930442Y8971924D01*
X1932708Y8970184D01*
X1935348Y8969091D01*
X1938180Y8968718D01*
X1940330D01*
Y8978162D01*
D02*
G37*
G36*
X1635530Y9080270D02*
X1623130D01*
Y9079940D01*
X1624077Y9076405D01*
X1625907Y9073235D01*
X1628495Y9070647D01*
X1631665Y9068817D01*
X1635200Y9067870D01*
X1635530D01*
Y9080270D01*
D02*
G37*
G36*
X1923636Y8927867D02*
X1921486D01*
Y8918424D01*
X1934382D01*
X1934207Y8919756D01*
X1933114Y8922396D01*
X1931374Y8924662D01*
X1929108Y8926401D01*
X1926468Y8927495D01*
X1923636Y8927867D01*
D02*
G37*
G36*
X1918486D02*
X1916336D01*
X1913504Y8927495D01*
X1910864Y8926401D01*
X1908598Y8924662D01*
X1906859Y8922396D01*
X1905765Y8919756D01*
X1905590Y8918424D01*
X1918486D01*
Y8927867D01*
D02*
G37*
G36*
X1934382Y8915424D02*
X1921486D01*
Y8905980D01*
X1923636D01*
X1926468Y8906353D01*
X1929108Y8907446D01*
X1931374Y8909186D01*
X1933114Y8911452D01*
X1934207Y8914092D01*
X1934382Y8915424D01*
D02*
G37*
G36*
X1918486D02*
X1905590D01*
X1905765Y8914092D01*
X1906859Y8911452D01*
X1908598Y8909186D01*
X1910864Y8907446D01*
X1913504Y8906353D01*
X1916336Y8905980D01*
X1918486D01*
Y8915424D01*
D02*
G37*
G36*
X1934486Y8902374D02*
X1921486D01*
Y8893024D01*
X1934486D01*
Y8902374D01*
D02*
G37*
G36*
X1918486D02*
X1905486D01*
Y8893024D01*
X1918486D01*
Y8902374D01*
D02*
G37*
G36*
X1934486Y8890024D02*
X1921486D01*
Y8880674D01*
X1934486D01*
Y8890024D01*
D02*
G37*
%LPD*%
D30*
X1637030Y9081770D02*
D03*
X1662430D02*
D03*
X1687830D02*
D03*
X1713230D02*
D03*
X1738630D02*
D03*
X1764030D02*
D03*
X1789430D02*
D03*
X1814830D02*
D03*
Y8929370D02*
D03*
X1789430D02*
D03*
X1764030D02*
D03*
X1738630D02*
D03*
X1713230D02*
D03*
X1687830D02*
D03*
X1662430D02*
D03*
X1637030D02*
D03*
D31*
X2058941Y9038319D02*
D03*
X2005059Y9092201D02*
D03*
X2023020Y9074240D02*
D03*
X2040980Y9056279D02*
D03*
D32*
X1725168Y8265160D02*
D03*
Y8214360D02*
D03*
Y8239760D02*
D03*
Y8290560D02*
D03*
Y8188960D02*
D03*
Y8163560D02*
D03*
Y8138160D02*
D03*
Y8112760D02*
D03*
X1980438Y8290560D02*
D03*
Y8265160D02*
D03*
Y8239760D02*
D03*
Y8214360D02*
D03*
Y8188960D02*
D03*
Y8163560D02*
D03*
Y8138160D02*
D03*
Y8112760D02*
D03*
D33*
X1812798Y8073390D02*
D03*
X1914398D02*
D03*
X1787398D02*
D03*
X1838198D02*
D03*
X1863598D02*
D03*
X1888998D02*
D03*
X1761998D02*
D03*
X1939798D02*
D03*
X1664208Y8329930D02*
D03*
X1638808D02*
D03*
X1689608D02*
D03*
X1613408D02*
D03*
X1939798D02*
D03*
X1838198D02*
D03*
X1863598D02*
D03*
X1761998D02*
D03*
X1914398D02*
D03*
X1888998D02*
D03*
X1812798D02*
D03*
X1787398D02*
D03*
D34*
X1980946Y8547862D02*
D03*
X1979930Y8729218D02*
D03*
X1483868Y8547608D02*
D03*
Y8728710D02*
D03*
D35*
X1919986Y8891524D02*
D03*
X1519936Y8861298D02*
D03*
X1941830Y9005062D02*
D03*
D36*
X1919986Y8916924D02*
D03*
X1519936Y8886698D02*
D03*
X1941830Y8979662D02*
D03*
D37*
X1694942Y9286494D02*
D03*
X1877568Y9172448D02*
D03*
X1690370Y8395970D02*
D03*
D38*
X1669542Y9286494D02*
D03*
X1852168Y9172448D02*
D03*
X1664970Y8395970D02*
D03*
D39*
X2244090Y8148320D02*
D03*
X1564640Y8936990D02*
D03*
X1874520Y8933180D02*
D03*
X1293876Y8145272D02*
D03*
D40*
X2244090Y8173720D02*
D03*
Y8199120D02*
D03*
Y8224520D02*
D03*
X1564640Y9063990D02*
D03*
Y9038590D02*
D03*
Y9013190D02*
D03*
Y8987790D02*
D03*
Y8962390D02*
D03*
X1874520Y8958580D02*
D03*
Y8983980D02*
D03*
Y9009380D02*
D03*
Y9034780D02*
D03*
Y9060180D02*
D03*
X1293876Y8170672D02*
D03*
Y8196072D02*
D03*
Y8221472D02*
D03*
D41*
X1751330Y9345930D02*
D03*
X1725930D02*
D03*
X1700530D02*
D03*
X1776730D02*
D03*
D42*
X1750822Y8497316D02*
D03*
X1725422D02*
D03*
X1700022D02*
D03*
D43*
X1674622D02*
D03*
D44*
X1657350Y9194800D02*
D03*
X1682750D02*
D03*
X1708150D02*
D03*
X1733550D02*
D03*
X1758950D02*
D03*
D45*
X1784350D02*
D03*
D46*
X1454150Y9091930D02*
D03*
X1400269Y9038049D02*
D03*
X1418229Y9056009D02*
D03*
X1436190Y9073970D02*
D03*
D47*
X1587880Y8280020D02*
Y8887712D01*
X1601088Y8900920D01*
X1593088Y8904234D02*
Y8976106D01*
X1601088Y8900920D02*
Y8989442D01*
X1579880Y8276707D02*
Y8891026D01*
X1593088Y8904234D01*
X1891936Y9092294D02*
X1941830Y9042400D01*
Y9005062D02*
Y9042400D01*
X1814830Y9081770D02*
X1825354Y9092294D01*
X1891936D01*
X1980438Y8188960D02*
X1984756D01*
X2059432Y8263636D02*
Y8966157D01*
X1984756Y8188960D02*
X2059432Y8263636D01*
X1911331Y9136886D02*
X2075432Y8972784D01*
X2023020Y9036511D02*
X2084202Y8975328D01*
X2040980Y9029864D02*
X2092202Y8978642D01*
X2075432Y8233154D02*
Y8972784D01*
X1908017Y9128886D02*
X2067432Y8969471D01*
X1831594Y9120886D02*
X1904703D01*
X2059432Y8966157D01*
X1842264Y9136886D02*
X1911331D01*
X2084202Y8113400D02*
Y8975328D01*
X2092202Y8105906D02*
Y8978642D01*
X2023020Y9036511D02*
Y9074240D01*
X1838950Y9128886D02*
X1908017D01*
X2040980Y9029864D02*
Y9056279D01*
X2067432Y8250554D02*
Y8969471D01*
X2116202Y8081646D02*
Y9045369D01*
X2106481Y9067994D02*
X2108202Y9042056D01*
Y8090664D02*
Y9042056D01*
X2105672Y9068804D02*
X2106481Y9067994D01*
X2114362Y9159206D02*
X2115231Y9158337D01*
X2100202Y8102195D02*
Y9038742D01*
X1805559Y9333385D02*
X2067139Y9071805D01*
X2115231Y9158337D02*
X2116202Y9045369D01*
X2067139Y9071805D02*
X2100202Y9038742D01*
X1805559Y9333385D02*
Y9345803D01*
X2051304Y8285226D02*
Y8832734D01*
X1980438Y8214360D02*
X2051304Y8285226D01*
X1835856Y8332272D02*
X1838198Y8329930D01*
X1835150Y8337808D02*
X1835856Y8337101D01*
Y8332272D02*
Y8337101D01*
X1835150Y8337808D02*
Y8832850D01*
X1818638Y8341876D02*
Y8556645D01*
X1815140Y8338378D02*
X1818638Y8341876D01*
X1799608Y9374868D02*
X2105672Y9068804D01*
X1876584Y9396984D02*
X2114362Y9159206D01*
X1875960Y9408922D02*
X2124202Y9160680D01*
Y8073390D02*
Y9160680D01*
X2056004Y8005192D02*
X2124202Y8073390D01*
X1682750Y9161780D02*
Y9194800D01*
X1795066Y9157414D02*
X1831594Y9120886D01*
X1687116Y9157414D02*
X1795066D01*
X1682750Y9161780D02*
X1687116Y9157414D01*
X1733550Y9174734D02*
Y9194800D01*
Y9174734D02*
X1742870Y9165414D01*
X1802422D01*
X1838950Y9128886D01*
X1912620Y8071612D02*
X1914398Y8073390D01*
X1912620Y8044804D02*
Y8071612D01*
Y8044804D02*
X1918074Y8039350D01*
X2025646D01*
X2092202Y8105906D01*
X1939798Y8057388D02*
Y8073390D01*
Y8057388D02*
X1947926Y8049260D01*
X2020062D01*
X2084202Y8113400D01*
X1980438Y8163560D02*
X2067432Y8250554D01*
X1912112Y8302244D02*
X1939798Y8329930D01*
X1980438Y8138160D02*
X2075432Y8233154D01*
X1836650Y8061270D02*
Y8071842D01*
X1835150Y8059770D02*
X1836650Y8061270D01*
X1666610Y8189976D02*
X1724152D01*
X1725168Y8188960D01*
X1812798Y8329930D02*
X1815140Y8332272D01*
Y8338378D01*
X1887450Y8331478D02*
Y8342050D01*
Y8331478D02*
X1888998Y8329930D01*
X1863598Y8032242D02*
Y8073390D01*
X1980438Y8239760D02*
X2042668Y8301990D01*
X1914398Y8329930D02*
Y8333242D01*
X1811250Y8061270D02*
Y8071842D01*
X1809750Y8059770D02*
X1811250Y8061270D01*
X1725168Y8290560D02*
Y8497062D01*
X1761998Y8329930D02*
X1764139Y8332071D01*
Y8338929D01*
X1787398Y8329930D02*
X1810638Y8353170D01*
X1887992Y8040868D02*
Y8072384D01*
X1862050Y8331478D02*
Y8342050D01*
Y8331478D02*
X1863598Y8329930D01*
X1652524Y8215376D02*
X1724152D01*
X1725168Y8214360D01*
X1836650Y8071842D02*
X1838198Y8073390D01*
X1811250Y8071842D02*
X1812798Y8073390D01*
X1887992Y8072384D02*
X1888998Y8073390D01*
X1587880Y8280020D02*
X1652524Y8215376D01*
X1577340Y9013190D02*
X1601088Y8989442D01*
X1564640Y9013190D02*
X1577340D01*
X1860550Y8343550D02*
X1862050Y8342050D01*
X1860550Y8343550D02*
Y8832850D01*
X1764030Y8929370D02*
X1860550Y8832850D01*
X1887992Y8040868D02*
X1897510Y8031350D01*
X2029357D01*
X2100202Y8102195D01*
X1786382Y9364980D02*
X1805559Y9345803D01*
X1759204Y9364980D02*
X1786382D01*
X1751330Y9357106D02*
X1759204Y9364980D01*
X1751330Y9345930D02*
Y9357106D01*
X1687830Y8676140D02*
Y8929370D01*
Y8676140D02*
X1810638Y8553331D01*
Y8353170D02*
Y8553331D01*
X1662430Y8687054D02*
Y8929370D01*
Y8687054D02*
X1802638Y8546846D01*
Y8377428D02*
Y8546846D01*
X1764139Y8338929D02*
X1802638Y8377428D01*
X1725168Y8497062D02*
X1725422Y8497316D01*
X1809750Y8017510D02*
Y8059770D01*
Y8017510D02*
X1822068Y8005192D01*
X2056004D01*
X1708912Y9408922D02*
X1875960D01*
X1414780Y9114790D02*
X1708912Y9408922D01*
X1414780Y9062786D02*
Y9114790D01*
Y9062786D02*
X1418229Y9059337D01*
Y9056009D02*
Y9059337D01*
X1914398Y8333242D02*
X1918970Y8337814D01*
Y8825230D01*
X1814830Y8929370D02*
X1918970Y8825230D01*
X1986152Y8897886D02*
X2051304Y8832734D01*
X1979034Y8905004D02*
X1986152Y8897886D01*
X1892058Y8991980D02*
X1979034Y8905004D01*
X1891920Y8991980D02*
X1892058D01*
X1874520Y9009380D02*
X1891920Y8991980D01*
X2042668Y8301990D02*
Y8830056D01*
X1888744Y8983980D02*
X2042668Y8830056D01*
X1874520Y8983980D02*
X1888744D01*
X1863598Y8032242D02*
X1872490Y8023350D01*
X2032671D01*
X2032927Y8023606D01*
X2041144D01*
X2108202Y8090664D01*
X1738866Y9374868D02*
X1799608D01*
X1725930Y9361932D02*
X1738866Y9374868D01*
X1725930Y9345930D02*
Y9361932D01*
X1789430Y8928100D02*
Y8929370D01*
Y8928100D02*
X1885950Y8831580D01*
Y8343550D02*
Y8831580D01*
Y8343550D02*
X1887450Y8342050D01*
X1713230Y8662053D02*
Y8929370D01*
Y8662053D02*
X1818638Y8556645D01*
X1579880Y8276707D02*
X1666610Y8189976D01*
X1581404Y8987790D02*
X1593088Y8976106D01*
X1564640Y8987790D02*
X1581404D01*
X1738630Y8929370D02*
X1835150Y8832850D01*
Y8014970D02*
Y8059770D01*
Y8014970D02*
X1836928Y8013192D01*
X2047748D01*
X2116202Y8081646D01*
X1714246Y9396984D02*
X1876584D01*
X1436190Y9118928D02*
X1714246Y9396984D01*
X1436190Y9073970D02*
Y9118928D01*
X1784350Y9194800D02*
X1842264Y9136886D01*
X1738122Y8484616D02*
X1750822Y8497316D01*
X1738122Y8323072D02*
Y8484616D01*
Y8323072D02*
X1758950Y8302244D01*
X1912112D01*
X1408430Y7990840D02*
X2211070D01*
X2242820Y8022590D01*
X1291590Y8107680D02*
X1408430Y7990840D01*
X1547114Y8936990D02*
X1564640D01*
X1535430Y8948674D02*
Y9091676D01*
Y8948674D02*
X1547114Y8936990D01*
X1535430Y9091676D02*
X1549924Y9106170D01*
X1714230D01*
X1738630Y9081770D01*
X1696830Y9098170D02*
X1713230Y9081770D01*
X1620410Y9098170D02*
X1696830D01*
X1586230Y9063990D02*
X1620410Y9098170D01*
X1291590Y8142986D02*
X1293876Y8145272D01*
X1291590Y8107680D02*
Y8142986D01*
X2242820Y8022590D02*
Y8145780D01*
X1789892Y9005283D02*
X1861995Y8933180D01*
X1874520D01*
X1693197Y9005283D02*
X1789892D01*
X1687830Y9059926D02*
X1700276Y9047480D01*
X1687830Y9059926D02*
Y9081770D01*
X1700276Y9047480D02*
X1832610D01*
X1842813Y9057683D02*
X1872023D01*
X1832610Y9047480D02*
X1842813Y9057683D01*
X1872023D02*
X1874520Y9060180D01*
X1662430Y9036050D02*
Y9081770D01*
Y9036050D02*
X1693197Y9005283D01*
X1569720Y9063990D02*
X1586230D01*
D48*
X1826839Y9064370D02*
X1845764Y9083294D01*
X1888208D02*
X1901190Y9070312D01*
X1845764Y9083294D02*
X1888208D01*
X1901190Y9041130D02*
Y9070312D01*
X2058941Y9038319D02*
X2058985Y9038364D01*
X2058146Y9048414D02*
X2058985Y9047574D01*
Y9038364D02*
Y9047574D01*
X2058146Y9048414D02*
Y9068070D01*
X1785107Y9341109D02*
X2058146Y9068070D01*
X1777576Y9341109D02*
X1785107D01*
X1776730Y9341956D02*
X1777576Y9341109D01*
X1495628Y8059160D02*
X1718558D01*
X2032000Y8372602D01*
Y8740902D01*
X1612860Y8330478D02*
Y8345050D01*
Y8330478D02*
X1613408Y8329930D01*
X1674114Y8480806D02*
Y8497316D01*
X1610360Y8417052D02*
X1674114Y8480806D01*
X1610360Y8347550D02*
Y8417052D01*
Y8347550D02*
X1612860Y8345050D01*
X1839196Y8933706D02*
X2032000Y8740902D01*
X1776730Y9341956D02*
Y9345930D01*
Y9330182D02*
Y9341956D01*
X1705102Y9258554D02*
X1776730Y9330182D01*
X1620774Y9258554D02*
X1705102D01*
X1485900Y9123680D02*
X1620774Y9258554D01*
X1362272Y8192516D02*
X1495628Y8059160D01*
X1362272Y8192516D02*
X1454150Y8284395D01*
X1674622Y8497316D02*
Y8510270D01*
X1618234Y8566658D02*
X1674622Y8510270D01*
X1618234Y8566658D02*
Y9009634D01*
X1805432Y8967470D02*
X1839196Y8933706D01*
Y8933706D02*
Y8933706D01*
X1697990Y8967470D02*
X1805432D01*
X1454150Y9091930D02*
X1485900Y9123680D01*
X1589278Y9038590D02*
X1618234Y9009634D01*
X1771650Y9123680D02*
X1789430Y9105900D01*
X1485900Y9123680D02*
X1771650D01*
X1576914Y9038590D02*
X1589278D01*
X1626870D01*
X1296866Y8196072D02*
X1300422Y8192516D01*
X1362272D01*
X1293876Y8196072D02*
X1296866D01*
X1293876D02*
Y8221472D01*
X1454150Y8284395D02*
Y9091930D01*
X1626870Y9038590D02*
X1697990Y8967470D01*
X1789430Y9081770D02*
Y9105900D01*
X1807623Y9064370D02*
X1826839D01*
X1564640Y9038590D02*
X1576070D01*
X1790223Y9081770D02*
X1807623Y9064370D01*
X1894840Y9034780D02*
X1901190Y9041130D01*
X1874520Y9034780D02*
X1894840D01*
X1789430Y9081770D02*
X1790223D01*
M02*
